<?xml version="1.0" encoding="UTF-8" standalone="no"?>
<svg width="18px" height="24px" viewBox="0 0 18 24" version="1.1" xmlns="http://www.w3.org/2000/svg" xmlns:xlink="http://www.w3.org/1999/xlink">
    <!-- Generator: Sketch 42 (36781) - http://www.bohemiancoding.com/sketch -->
    <title>IconContinuarVendo@1x</title>
    <desc>Created with Sketch.</desc>
    <defs></defs>
    <g id="Tueddin" stroke="none" stroke-width="1" fill="none" fill-rule="evenodd">
        <g id="iPhone-7-combinam" transform="translate(-84.000000, -588.000000)" fill="#000000">
            <g id="continuarVendo" transform="translate(39.000000, 578.000000)">
                <g id="IconContinuarVendo" transform="translate(44.000000, 10.000000)">
                    <path d="M16.64,24 C16.13,19.653 14.32,16 9.81,16 C5.3,16 3.49,19.653 2.98,24 L0.99,24 C1.64,18.575 4.2,14 9.81,14 C15.42,14 17.98,18.575 18.63,24 L16.64,24 L16.64,24 Z M9.81,12 C6.4962915,12 3.81,9.3137085 3.81,6 C3.81,2.6862915 6.4962915,0 9.81,0 C13.1237085,0 15.81,2.6862915 15.81,6 C15.81,9.3137085 13.1237085,12 9.81,12 L9.81,12 Z M9.81,2 C7.600861,2 5.81,3.790861 5.81,6 C5.81,8.209139 7.600861,10 9.81,10 C12.019139,10 13.81,8.209139 13.81,6 C13.81,3.790861 12.019139,2 9.81,2 L9.81,2 Z" id="user"></path>
                </g>
            </g>
        </g>
    </g>
</svg>