<?xml version="1.0" encoding="UTF-8" standalone="no"?>
<svg width="36px" height="39px" viewBox="0 0 36 39" version="1.1" xmlns="http://www.w3.org/2000/svg" xmlns:xlink="http://www.w3.org/1999/xlink">
    <!-- Generator: Sketch 41 (35326) - http://www.bohemiancoding.com/sketch -->
    <title>IconePessoas</title>
    <desc>Created with Sketch.</desc>
    <defs></defs>
    <g id="Tueddin" stroke="none" stroke-width="1" fill="none" fill-rule="evenodd">
        <g id="iPhone-7-home" transform="translate(-80.000000, -252.000000)" fill="#FFFFFF">
            <g id="IconePessoas" transform="translate(79.000000, 252.000000)">
                <text id="PESSOAS" font-family=".SFNSDisplay-Bold, .SF NS Display" font-size="7.6500001" font-weight="bold">
                    <tspan x="2" y="38">PESSOAS</tspan>
                </text>
                <g id="users">
                    <path d="M28.4183871,16.9166667 C25.1224942,16.9166667 22.4506452,14.2117204 22.4506452,10.875 C22.4506452,7.53827964 25.1224942,4.83333333 28.4183871,4.83333333 C31.71428,4.83333333 34.386129,7.53827964 34.386129,10.875 C34.386129,14.2117204 31.71428,16.9166667 28.4183871,16.9166667 L28.4183871,16.9166667 Z M28.4183871,7.25 C26.4408514,7.25 24.8377419,8.87296778 24.8377419,10.875 C24.8377419,12.8770322 26.4408514,14.5 28.4183871,14.5 C30.3959228,14.5 31.9990323,12.8770322 31.9990323,10.875 C31.9990323,8.87296778 30.3959228,7.25 28.4183871,7.25 L28.4183871,7.25 Z M18.2612903,23.345 C17.0644112,20.8030081 14.4882421,19.2258078 11.7087097,19.3333333 C6.32580645,19.3333333 4.16548387,23.747375 3.55677419,29 L1.1816129,29 C1.95741935,22.4447917 5.01290323,16.9166667 11.7087097,16.9166667 C14.9839692,16.8055556 18.0637711,18.4915596 19.7651613,21.3270833 C19.1685825,21.9211943 18.6618373,22.6011526 18.2612903,23.345 L18.2612903,23.345 Z M11.7087097,14.5 C7.75363824,14.5 4.54741935,11.2540644 4.54741935,7.25 C4.54741935,3.24593556 7.75363824,0 11.7087097,0 C15.6637811,0 18.87,3.24593556 18.87,7.25 C18.87,11.2540644 15.6637811,14.5 11.7087097,14.5 L11.7087097,14.5 Z M11.7087097,2.41666667 C9.07199539,2.41666667 6.93451613,4.58062371 6.93451613,7.25 C6.93451613,9.91937629 9.07199539,12.0833333 11.7087097,12.0833333 C14.345424,12.0833333 16.4829032,9.91937629 16.4829032,7.25 C16.4829032,4.58062371 14.345424,2.41666667 11.7087097,2.41666667 L11.7087097,2.41666667 Z M28.4183871,19.3333333 C33.67,19.3333333 36.0332258,23.7655 36.6180645,29 L34.2548387,29 C33.8251613,25.059625 32.2735484,21.75 28.4183871,21.75 C24.5632258,21.75 23.0116129,25.0620417 22.5819355,29 L20.2187097,29 C20.8035484,23.7667083 23.1667742,19.3333333 28.4183871,19.3333333 L28.4183871,19.3333333 Z"></path>
                </g>
            </g>
        </g>
    </g>
</svg>