<?xml version="1.0" encoding="UTF-8" standalone="no"?>
<svg width="46px" height="46px" viewBox="0 0 46 46" version="1.1" xmlns="http://www.w3.org/2000/svg" xmlns:xlink="http://www.w3.org/1999/xlink">
    <!-- Generator: Sketch 41 (35326) - http://www.bohemiancoding.com/sketch -->
    <title>IconeConversas</title>
    <desc>Created with Sketch.</desc>
    <defs></defs>
    <g id="Tueddin" stroke="none" stroke-width="1" fill="none" fill-rule="evenodd">
        <g id="iPhone-7-home" transform="translate(-252.000000, -373.000000)" fill="#FFFFFF">
            <g id="IconeConversas" transform="translate(252.000000, 373.000000)">
                <g id="Group" transform="translate(5.000000, 0.000000)">
                    <path d="M19.8333333,26.9166667 L14.1666667,26.9166667 C13.38325,26.9166667 12.75,26.282 12.75,25.5 C12.75,24.718 13.38325,24.0833333 14.1666667,24.0833333 L19.8333333,24.0833333 C26.08225,24.0833333 31.1666667,19.3176667 31.1666667,13.4583333 C31.1666667,7.599 26.08225,2.83333333 19.8333333,2.83333333 L14.1666667,2.83333333 C7.91775,2.83333333 2.83333333,7.599 2.83333333,13.4583333 C2.83333333,15.4416667 3.41983333,17.3754167 4.52908333,19.0499167 C4.96116667,19.703 4.78266667,20.5813333 4.131,21.0134167 C3.47366667,21.4455 2.59816667,21.267 2.16608333,20.6153333 C0.749416667,18.47475 0,15.9998333 0,13.4583333 C0,6.03783333 6.35516667,0 14.1666667,0 L19.8333333,0 C27.6448333,0 34,6.03783333 34,13.4583333 C34,20.8788333 27.6448333,26.9166667 19.8333333,26.9166667" id="Fill-47"></path>
                    <path d="M5.6695,33.4149167 C5.304,33.4149167 4.93425,33.3440833 4.5815,33.1981667 C3.519,32.7575833 2.83333333,31.7305 2.83333333,30.5801667 C2.83333333,30.45125 2.85175,30.32375 2.88575,30.1990833 L4.30241667,25.1189167 C4.51208333,24.3638333 5.29691667,23.9260833 6.04775,24.13575 C6.80141667,24.3454167 7.24058333,25.1274167 7.03091667,25.8810833 L5.74033333,30.5121667 C5.75166667,30.5008333 5.763,30.4909167 5.77575,30.481 L13.2741667,24.39925 C13.5263333,24.19525 13.8408333,24.0833333 14.1666667,24.0833333 L15.5833333,24.0833333 C16.36675,24.0833333 17,24.718 17,25.5 C17,26.282 16.36675,26.9166667 15.5833333,26.9166667 L14.6681667,26.9166667 L7.60891667,32.6428333 C7.072,33.1471667 6.37783333,33.4149167 5.6695,33.4149167" id="Fill-48"></path>
                    <path d="M18.4166667,14.1666667 C18.4166667,14.9486667 17.782,15.5833333 17,15.5833333 C16.218,15.5833333 15.5833333,14.9486667 15.5833333,14.1666667 C15.5833333,13.3846667 16.218,12.75 17,12.75 C17.782,12.75 18.4166667,13.3846667 18.4166667,14.1666667" id="Fill-49"></path>
                    <path d="M25.5,14.1666667 C25.5,14.9486667 24.8653333,15.5833333 24.0833333,15.5833333 C23.3013333,15.5833333 22.6666667,14.9486667 22.6666667,14.1666667 C22.6666667,13.3846667 23.3013333,12.75 24.0833333,12.75 C24.8653333,12.75 25.5,13.3846667 25.5,14.1666667" id="Fill-50"></path>
                    <path d="M11.3333333,14.1666667 C11.3333333,14.9486667 10.6986667,15.5833333 9.91666667,15.5833333 C9.13466667,15.5833333 8.5,14.9486667 8.5,14.1666667 C8.5,13.3846667 9.13466667,12.75 9.91666667,12.75 C10.6986667,12.75 11.3333333,13.3846667 11.3333333,14.1666667" id="Fill-51"></path>
                </g>
                <text id="CONVERSAS" font-family=".SFNSDisplay-Bold, .SF NS Display" font-size="7.6500001" font-weight="bold">
                    <tspan x="0" y="45">CONVERSAS</tspan>
                </text>
            </g>
        </g>
    </g>
</svg>