<?xml version="1.0" encoding="UTF-8" standalone="no"?>
<svg width="20px" height="20px" viewBox="0 0 20 20" version="1.1" xmlns="http://www.w3.org/2000/svg" xmlns:xlink="http://www.w3.org/1999/xlink">
    <!-- Generator: Sketch 41 (35326) - http://www.bohemiancoding.com/sketch -->
    <title>visualizacao_Grid@1x</title>
    <desc>Created with Sketch.</desc>
    <defs></defs>
    <g id="Tueddin" stroke="none" stroke-width="1" fill="none" fill-rule="evenodd">
        <g id="Profile" transform="translate(-54.000000, -392.000000)" fill="#9B9B9B">
            <g id="Menu" transform="translate(-1.000000, 379.000000)">
                <g id="visualizacao_Grid" transform="translate(55.000000, 13.000000)">
                    <g id="9-Grid">
                        <path d="M1.05040404,4.26646154 L4.20181818,4.26646154 L4.20181818,1.0665641 L1.05040404,1.0665641 L1.05040404,4.26646154 Z M5.25222222,0.533333333 C5.25222222,0.24 5.01585859,0 4.72686869,0 L0.525252525,0 C0.236363636,0 0,0.24 0,0.533333333 L0,4.79969231 C0,5.09302564 0.236363636,5.33302564 0.525252525,5.33302564 L4.72686869,5.33302564 C5.01585859,5.33302564 5.25222222,5.09302564 5.25222222,4.79969231 L5.25222222,0.533333333 Z" id="Fill-1"></path>
                        <path d="M8.40363636,4.26646154 L11.5548485,4.26646154 L11.5548485,1.0665641 L8.40363636,1.0665641 L8.40363636,4.26646154 Z M12.6052525,0.533333333 C12.6052525,0.24 12.3689899,0 12.080101,0 L7.87828283,0 C7.58939394,0 7.3530303,0.24 7.3530303,0.533333333 L7.3530303,4.79969231 C7.3530303,5.09302564 7.58939394,5.33302564 7.87828283,5.33302564 L12.080101,5.33302564 C12.3689899,5.33302564 12.6052525,5.09302564 12.6052525,4.79969231 L12.6052525,0.533333333 Z" id="Fill-3"></path>
                        <path d="M15.7567677,4.26646154 L18.9079798,4.26646154 L18.9079798,1.0665641 L15.7567677,1.0665641 L15.7567677,4.26646154 Z M19.9583838,0.533333333 C19.9583838,0.24 19.7222222,0 19.4333333,0 L15.2315152,0 C14.9426263,0 14.7062626,0.24 14.7062626,0.533333333 L14.7062626,4.79969231 C14.7062626,5.09302564 14.9426263,5.33302564 15.2315152,5.33302564 L19.4333333,5.33302564 C19.7222222,5.33302564 19.9583838,5.09302564 19.9583838,4.79969231 L19.9583838,0.533333333 Z" id="Fill-4"></path>
                        <path d="M15.7567677,11.5549744 L18.9079798,11.5549744 L18.9079798,8.35507692 L15.7567677,8.35507692 L15.7567677,11.5549744 Z M19.9583838,7.82184615 C19.9583838,7.52851282 19.7222222,7.28851282 19.4333333,7.28851282 L15.2315152,7.28851282 C14.9426263,7.28851282 14.7062626,7.52851282 14.7062626,7.82184615 L14.7062626,12.0881026 C14.7062626,12.3814359 14.9426263,12.6215385 15.2315152,12.6215385 L19.4333333,12.6215385 C19.7222222,12.6215385 19.9583838,12.3814359 19.9583838,12.0881026 L19.9583838,7.82184615 Z" id="Fill-5"></path>
                        <path d="M1.05040404,11.5549744 L4.20181818,11.5549744 L4.20181818,8.35507692 L1.05040404,8.35507692 L1.05040404,11.5549744 Z M5.25222222,7.82184615 C5.25222222,7.52851282 5.01585859,7.28851282 4.72686869,7.28851282 L0.525252525,7.28851282 C0.236363636,7.28851282 0,7.52851282 0,7.82184615 L0,12.0881026 C0,12.3814359 0.236363636,12.6215385 0.525252525,12.6215385 L4.72686869,12.6215385 C5.01585859,12.6215385 5.25222222,12.3814359 5.25222222,12.0881026 L5.25222222,7.82184615 Z" id="Fill-6"></path>
                        <path d="M8.40363636,11.5549744 L11.5548485,11.5549744 L11.5548485,8.35507692 L8.40363636,8.35507692 L8.40363636,11.5549744 Z M12.6052525,7.82184615 C12.6052525,7.52851282 12.3689899,7.28851282 12.080101,7.28851282 L7.87828283,7.28851282 C7.58939394,7.28851282 7.3530303,7.52851282 7.3530303,7.82184615 L7.3530303,12.0881026 C7.3530303,12.3814359 7.58939394,12.6215385 7.87828283,12.6215385 L12.080101,12.6215385 C12.3689899,12.6215385 12.6052525,12.3814359 12.6052525,12.0881026 L12.6052525,7.82184615 Z" id="Fill-7"></path>
                        <path d="M15.7567677,18.8563077 L18.9079798,18.8563077 L18.9079798,15.6564103 L15.7567677,15.6564103 L15.7567677,18.8563077 Z M19.9583838,15.1231795 C19.9583838,14.8298462 19.7222222,14.5898462 19.4333333,14.5898462 L15.2315152,14.5898462 C14.9426263,14.5898462 14.7062626,14.8298462 14.7062626,15.1231795 L14.7062626,19.3895385 C14.7062626,19.6828718 14.9426263,19.9228718 15.2315152,19.9228718 L19.4333333,19.9228718 C19.7222222,19.9228718 19.9583838,19.6828718 19.9583838,19.3895385 L19.9583838,15.1231795 Z" id="Fill-8"></path>
                        <path d="M1.05040404,18.8563077 L4.20181818,18.8563077 L4.20181818,15.6564103 L1.05040404,15.6564103 L1.05040404,18.8563077 Z M5.25222222,15.1232821 C5.25222222,14.8298462 5.01585859,14.5898462 4.72686869,14.5898462 L0.525252525,14.5898462 C0.236363636,14.5898462 0,14.8298462 0,15.1232821 L0,19.3895385 C0,19.6828718 0.236363636,19.9228718 0.525252525,19.9228718 L4.72686869,19.9228718 C5.01585859,19.9228718 5.25222222,19.6828718 5.25222222,19.3895385 L5.25222222,15.1232821 Z" id="Fill-9"></path>
                        <path d="M8.40363636,18.8563077 L11.5548485,18.8563077 L11.5548485,15.6564103 L8.40363636,15.6564103 L8.40363636,18.8563077 Z M12.6052525,15.1232821 C12.6052525,14.8298462 12.3689899,14.5898462 12.080101,14.5898462 L7.87828283,14.5898462 C7.58939394,14.5898462 7.3530303,14.8298462 7.3530303,15.1232821 L7.3530303,19.3895385 C7.3530303,19.6828718 7.58939394,19.9228718 7.87828283,19.9228718 L12.080101,19.9228718 C12.3689899,19.9228718 12.6052525,19.6828718 12.6052525,19.3895385 L12.6052525,15.1232821 Z" id="Fill-10"></path>
                    </g>
                </g>
            </g>
        </g>
    </g>
</svg>