<?xml version="1.0" encoding="UTF-8" standalone="no"?>
<svg width="24px" height="22px" viewBox="0 0 24 22" version="1.1" xmlns="http://www.w3.org/2000/svg" xmlns:xlink="http://www.w3.org/1999/xlink">
    <!-- Generator: Sketch 41 (35326) - http://www.bohemiancoding.com/sketch -->
    <title>localizacao@1x</title>
    <desc>Created with Sketch.</desc>
    <defs></defs>
    <g id="Tueddin" stroke="none" stroke-width="1" fill="none" fill-rule="evenodd">
        <g id="Profile" transform="translate(-131.000000, -436.000000)" fill="#E1413A">
            <g id="location" transform="translate(0.000000, 428.000000)">
                <path d="M154,28.3595 L147,26.6095 L147,19.5 C147,19.496 146.998,19.4925 146.998,19.489 C147.875,18.637 148.869,17.444 149.466,16.012 L154,17.372 L154,28.3595 L154,28.3595 Z M144.9995,19.884 C144.052,19.1735 141,16.6405 141,13.5 C141,11.257 142.757,9.5 145,9.5 C147.243,9.5 149,11.257 149,13.5 C149,16.633 145.9475,19.172 144.9995,19.884 L144.9995,19.884 Z M146,26.585 L139,27.8975 L139,17.338 L140.812,16.6135 C142.124,19.156 144.582,20.8225 144.7235,20.9165 C144.807,20.972 144.9035,21 145,21 C145.0965,21 145.193,20.972 145.2765,20.9165 C145.3215,20.887 145.6025,20.695 146,20.375 L146,26.585 L146,26.585 Z M138,27.8815 L132,26.5955 L132,15.663 L138,17.377 L138,27.8815 L138,27.8815 Z M154.6435,16.521 L149.793,15.066 C149.924,14.5655 150,14.0425 150,13.5 C150,10.6965 147.8035,8.5 145,8.5 C142.1965,8.5 140,10.6965 140,13.5 C140,14.2765 140.155,15.0125 140.4055,15.699 L138.4725,16.472 L131.6375,14.5195 C131.4875,14.4765 131.324,14.507 131.199,14.6005 C131.0735,14.6955 131,14.843 131,15 L131,27 C131,27.236 131.165,27.4395 131.3955,27.4895 L138.3955,28.9895 C138.413,28.993 138.4315,28.988 138.449,28.9895 C138.467,28.9915 138.482,29 138.5,29 C138.5165,29 138.5305,28.992 138.546,28.9905 C138.5615,28.9895 138.5765,28.994 138.592,28.991 L146.485,27.5115 L154.379,29.4855 C154.419,29.495 154.4595,29.5 154.5,29.5 C154.6105,29.5 154.719,29.4635 154.8075,29.394 C154.9285,29.2995 155,29.1545 155,29 L155,17 C155,16.7795 154.8555,16.5845 154.6435,16.521 L154.6435,16.521 Z M145,14 C144.448,14 143.9995,13.552 143.9995,13 C143.9995,12.448 144.448,12 145,12 C145.552,12 146,12.448 146,13 C146,13.552 145.552,14 145,14 L145,14 Z M145,11 C143.897,11 142.9995,11.8975 142.9995,13 C142.9995,14.1025 143.897,15 145,15 C146.1025,15 147,14.1025 147,13 C147,11.8975 146.1025,11 145,11 L145,11 Z" id="localizacao"></path>
            </g>
        </g>
    </g>
</svg>