<?xml version="1.0" encoding="UTF-8" standalone="no"?>
<svg width="29px" height="29px" viewBox="0 0 29 29" version="1.1" xmlns="http://www.w3.org/2000/svg" xmlns:xlink="http://www.w3.org/1999/xlink">
    <!-- Generator: Sketch 41 (35326) - http://www.bohemiancoding.com/sketch -->
    <title>iconeSair</title>
    <desc>Created with Sketch.</desc>
    <defs></defs>
    <g id="Tueddin" stroke="none" stroke-width="1" fill="none" fill-rule="evenodd">
        <g id="iPhone-7-home" transform="translate(-173.000000, -612.000000)" fill="#FFFFFF">
            <g id="iconeSair" transform="translate(187.500000, 626.500000) rotate(-270.000000) translate(-187.500000, -626.500000) translate(173.000000, 612.000000)">
                <path d="M14.5,29 C9.02625,29 4.07570833,25.9695 1.58170833,21.0914583 C1.39079167,20.7192917 1.21679167,20.33625 1.05729167,19.9459583 C0.80475,19.3272917 1.102,18.621625 1.71945833,18.3702917 C2.338125,18.1165417 3.04258333,18.4137917 3.295125,19.0324583 C3.42804167,19.3599167 3.57425,19.680125 3.73375,19.9930833 C5.81208333,24.0567083 9.93854167,26.5833333 14.5,26.5833333 C21.16275,26.5833333 26.5833333,21.16275 26.5833333,14.5 C26.5833333,7.83725 21.16275,2.41666667 14.5,2.41666667 C8.24445833,2.41666667 3.084875,7.19441667 2.47708333,13.2916667 L18.125,13.2916667 C18.7932083,13.2916667 19.3333333,13.8317917 19.3333333,14.5 C19.3333333,15.1682083 18.7932083,15.7083333 18.125,15.7083333 L1.20833333,15.7083333 C0.540125,15.7083333 0,15.1682083 0,14.5 C0,6.50445833 6.50445833,0 14.5,0 C22.4955417,0 29,6.50445833 29,14.5 C29,22.4955417 22.4955417,29 14.5,29" id="Fill-52"></path>
                <path d="M13.2916667,21.75 C12.9642083,21.75 12.6355417,21.6170833 12.3975,21.354875 C11.9492083,20.8606667 11.9854583,20.097 12.4784583,19.6475 L18.1419167,14.5 L12.4784583,9.3525 C11.9854583,8.903 11.9492083,8.13933333 12.3975,7.645125 C12.847,7.152125 13.6130833,7.11829167 14.104875,7.56416667 L19.767125,12.7116667 C20.2697917,13.169625 20.5585833,13.822125 20.5585833,14.5 C20.5585833,15.1790833 20.2697917,15.830375 19.7683333,16.287125 L14.104875,21.4358333 C13.872875,21.6460833 13.5816667,21.75 13.2916667,21.75" id="Fill-53"></path>
            </g>
        </g>
    </g>
</svg>