<?xml version="1.0" encoding="UTF-8" standalone="no"?>
<svg width="19px" height="20px" viewBox="0 0 19 20" version="1.1" xmlns="http://www.w3.org/2000/svg" xmlns:xlink="http://www.w3.org/1999/xlink">
    <!-- Generator: Sketch 41 (35326) - http://www.bohemiancoding.com/sketch -->
    <title>compartilhar</title>
    <desc>Created with Sketch.</desc>
    <defs></defs>
    <g id="Tueddin" stroke="none" stroke-width="1" fill="none" fill-rule="evenodd">
        <g id="Profile" transform="translate(-329.000000, -34.000000)" fill="#FFFFFF">
            <path d="M344.041667,52.4615385 C342.729875,52.4615385 341.666667,51.4284615 341.666667,50.1538462 C341.666667,48.8792308 342.729875,47.8461538 344.041667,47.8461538 C345.353458,47.8461538 346.416667,48.8792308 346.416667,50.1538462 C346.416667,51.4284615 345.353458,52.4615385 344.041667,52.4615385 L344.041667,52.4615385 Z M332.958333,46.3076923 C331.646542,46.3076923 330.583333,45.2746154 330.583333,44 C330.583333,42.7261538 331.646542,41.6923077 332.958333,41.6923077 C334.270125,41.6923077 335.333333,42.7261538 335.333333,44 C335.333333,45.2746154 334.270125,46.3076923 332.958333,46.3076923 L332.958333,46.3076923 Z M344.041667,35.5384615 C345.353458,35.5384615 346.416667,36.5715385 346.416667,37.8461538 C346.416667,39.1207692 345.353458,40.1538462 344.041667,40.1538462 C342.729875,40.1538462 341.666667,39.1207692 341.666667,37.8461538 C341.666667,36.5715385 342.729875,35.5384615 344.041667,35.5384615 L344.041667,35.5384615 Z M344.041667,46.3076923 C342.640417,46.3076923 341.417292,47.0192308 340.7135,48.0861538 L336.474125,45.7323077 C336.748042,45.2092308 336.916667,44.6261538 336.916667,44 C336.916667,43.6130769 336.839875,43.2469231 336.730625,42.8946154 L341.141,40.4461538 C341.863792,41.2076923 342.891375,41.6923077 344.041667,41.6923077 C346.22825,41.6923077 348,39.9707692 348,37.8461538 C348,35.7215385 346.22825,34 344.041667,34 C341.855083,34 340.083333,35.7215385 340.083333,37.8461538 C340.083333,38.2330769 340.160125,38.5992308 340.269375,38.9523077 L335.859,41.4 C335.136208,40.6392308 334.108625,40.1538462 332.958333,40.1538462 C330.77175,40.1538462 329,41.8753846 329,44 C329,46.1246154 330.77175,47.8461538 332.958333,47.8461538 C333.860833,47.8461538 334.683375,47.5415385 335.349167,47.0476923 L335.333333,47.0769231 L340.126875,49.7384615 C340.111042,49.8769231 340.083333,50.0107692 340.083333,50.1538462 C340.083333,52.2784615 341.855083,54 344.041667,54 C346.22825,54 348,52.2784615 348,50.1538462 C348,48.0292308 346.22825,46.3076923 344.041667,46.3076923 L344.041667,46.3076923 Z" id="compartilhar"></path>
        </g>
    </g>
</svg>