<?xml version="1.0" encoding="UTF-8" standalone="no"?>
<svg width="23px" height="23px" viewBox="0 0 23 23" version="1.1" xmlns="http://www.w3.org/2000/svg" xmlns:xlink="http://www.w3.org/1999/xlink">
    <!-- Generator: Sketch 41 (35326) - http://www.bohemiancoding.com/sketch -->
    <title>favoritos@1x</title>
    <desc>Created with Sketch.</desc>
    <defs></defs>
    <g id="Tueddin" stroke="none" stroke-width="1" fill="none" fill-rule="evenodd">
        <g id="Profile" transform="translate(-298.000000, -391.000000)" fill="#9B9B9B">
            <g id="Menu" transform="translate(-1.000000, 379.000000)">
                <path d="M321.913382,20.5760469 C321.715865,19.985112 321.206208,19.5529947 320.590945,19.4548054 L314.601648,18.536729 L312.004689,12.9602296 C311.73278,12.3746257 311.145808,12 310.500177,12 C309.854547,12 309.267574,12.3746257 308.995666,12.9602296 L306.398707,18.5348124 L300.409409,19.4528887 C299.793399,19.5515549 299.283348,19.9845757 299.086005,20.5764262 C298.888662,21.1682767 299.036768,21.8207666 299.470288,22.2694091 L303.859245,26.7888748 L302.84346,33.0592023 C302.735729,33.6890354 302.99888,34.3248213 303.520211,34.6942654 C304.041542,35.0637095 304.728585,35.1012844 305.287093,34.7908976 L310.500177,31.8910029 L315.713262,34.7908976 C315.960282,34.9257712 316.236792,34.9975352 316.518223,34.9998126 C317.007439,34.9989796 317.471519,34.7829696 317.787152,34.4091787 C318.102785,34.0353877 318.238009,33.5416667 318.156895,33.0592023 L317.14111,26.7888748 L321.530067,22.2694091 C321.963787,21.8207006 322.111578,21.1678094 321.913382,20.5760469 L321.913382,20.5760469 Z M315.80909,25.5746757 C315.4456,25.9429667 315.281545,26.463684 315.368278,26.9738318 L316.355314,33.0908271 L311.285973,30.2637652 C310.797451,29.9916184 310.202903,29.9916184 309.714382,30.2637652 L304.64504,33.0908271 L305.632077,26.9738318 C305.718809,26.463684 305.554754,25.9429667 305.191264,25.5746757 L300.926885,21.1663758 L306.753273,20.2693826 C307.285933,20.1837619 307.74166,19.8399793 307.970298,19.3513062 L310.500177,13.913764 L313.030057,19.3522645 C313.258939,19.8405678 313.714624,20.1839592 314.247082,20.2693826 L320.07347,21.1673341 L315.80909,25.5746757 Z" id="favoritos"></path>
            </g>
        </g>
    </g>
</svg>