<?xml version="1.0" encoding="UTF-8" standalone="no"?>
<svg width="20px" height="20px" viewBox="0 0 20 20" version="1.1" xmlns="http://www.w3.org/2000/svg" xmlns:xlink="http://www.w3.org/1999/xlink">
    <!-- Generator: Sketch 41 (35326) - http://www.bohemiancoding.com/sketch -->
    <title>visualizacao_List@1x</title>
    <desc>Created with Sketch.</desc>
    <defs></defs>
    <g id="Tueddin" stroke="none" stroke-width="1" fill="none" fill-rule="evenodd">
        <g id="Profile" transform="translate(-177.000000, -392.000000)" fill="#9B9B9B">
            <g id="Menu" transform="translate(-1.000000, 379.000000)">
                <g id="visualizacao_List" transform="translate(178.000000, 13.000000)">
                    <g id="List">
                        <path d="M1.26067195,4.2796732 L18.3975312,4.2796732 L18.3975312,1.06986928 L1.26067195,1.06986928 L1.26067195,4.2796732 Z M18.9534216,0 L0.704781567,0 C0.315523558,0 0,0.275490196 0,0.615359477 L0,4.73411765 C0,5.07398693 0.315523558,5.34954248 0.704781567,5.34954248 L18.9534216,5.34954248 C19.3426796,5.34954248 19.6582031,5.07398693 19.6582031,4.73411765 L19.6582031,0.615359477 C19.6582031,0.275490196 19.3426796,0 18.9534216,0 L18.9534216,0 Z" id="Fill-1"></path>
                        <path d="M1.26067195,11.4796078 L18.3975312,11.4796078 L18.3975312,8.26980392 L1.26067195,8.26980392 L1.26067195,11.4796078 Z M18.9534216,7.2 L0.704781567,7.2 C0.315523558,7.2 0,7.4754902 0,7.81535948 L0,11.9341176 C0,12.2739869 0.315523558,12.5494771 0.704781567,12.5494771 L18.9534216,12.5494771 C19.3426796,12.5494771 19.6582031,12.2739869 19.6582031,11.9341176 L19.6582031,7.81535948 C19.6582031,7.4754902 19.3426796,7.2 18.9534216,7.2 L18.9534216,7.2 Z" id="Fill-3"></path>
                        <path d="M1.26067195,18.6796732 L18.3975312,18.6796732 L18.3975312,15.4698693 L1.26067195,15.4698693 L1.26067195,18.6796732 Z M18.9534216,14.4 L0.704781567,14.4 C0.315523558,14.4 0,14.6755556 0,15.0153595 L0,19.134183 C0,19.4740523 0.315523558,19.7495425 0.704781567,19.7495425 L18.9534216,19.7495425 C19.3426796,19.7495425 19.6582031,19.4740523 19.6582031,19.134183 L19.6582031,15.0153595 C19.6582031,14.6755556 19.3426796,14.4 18.9534216,14.4 L18.9534216,14.4 Z" id="Fill-4"></path>
                    </g>
                </g>
            </g>
        </g>
    </g>
</svg>