<?xml version="1.0" encoding="UTF-8" standalone="no"?>
<svg width="29px" height="7px" viewBox="0 0 29 7" version="1.1" xmlns="http://www.w3.org/2000/svg" xmlns:xlink="http://www.w3.org/1999/xlink">
    <!-- Generator: Sketch 41 (35326) - http://www.bohemiancoding.com/sketch -->
    <title>opcoes@1x</title>
    <desc>Created with Sketch.</desc>
    <defs></defs>
    <g id="Tueddin" stroke="none" stroke-width="1" fill="none" fill-rule="evenodd">
        <g id="Profile" transform="translate(-329.000000, -42.000000)" fill="#FFFFFF">
            <g id="opcoes" transform="translate(329.000000, 42.000000)">
                <path d="M3.625,7 C1.62641667,7 0,5.42966667 0,3.5 C0,1.57033333 1.62641667,0 3.625,0 C5.62358333,0 7.25,1.57033333 7.25,3.5 C7.25,5.42966667 5.62358333,7 3.625,7 L3.625,7 Z M3.625,2.33333333 C2.958,2.33333333 2.41666667,2.85716667 2.41666667,3.5 C2.41666667,4.14283333 2.958,4.66666667 3.625,4.66666667 C4.292,4.66666667 4.83333333,4.14283333 4.83333333,3.5 C4.83333333,2.85716667 4.292,2.33333333 3.625,2.33333333 L3.625,2.33333333 Z" id="Fill-34"></path>
                <path d="M14.5,7 C12.5014167,7 10.875,5.42966667 10.875,3.5 C10.875,1.57033333 12.5014167,0 14.5,0 C16.4985833,0 18.125,1.57033333 18.125,3.5 C18.125,5.42966667 16.4985833,7 14.5,7 L14.5,7 Z M14.5,2.33333333 C13.833,2.33333333 13.2916667,2.85716667 13.2916667,3.5 C13.2916667,4.14283333 13.833,4.66666667 14.5,4.66666667 C15.167,4.66666667 15.7083333,4.14283333 15.7083333,3.5 C15.7083333,2.85716667 15.167,2.33333333 14.5,2.33333333 L14.5,2.33333333 Z" id="Fill-35"></path>
                <path d="M25.375,7 C23.3764167,7 21.75,5.42966667 21.75,3.5 C21.75,1.57033333 23.3764167,0 25.375,0 C26.0432083,0 26.5833333,0.522666667 26.5833333,1.16666667 C26.5833333,1.81066667 26.0432083,2.33333333 25.375,2.33333333 C24.708,2.33333333 24.1666667,2.85716667 24.1666667,3.5 C24.1666667,4.14283333 24.708,4.66666667 25.375,4.66666667 C26.042,4.66666667 26.5833333,4.14283333 26.5833333,3.5 C26.5833333,2.856 27.1234583,2.33333333 27.7916667,2.33333333 C28.459875,2.33333333 29,2.856 29,3.5 C29,5.42966667 27.3735833,7 25.375,7" id="Fill-36"></path>
            </g>
        </g>
    </g>
</svg>