<?xml version="1.0" encoding="UTF-8" standalone="no"?>
<svg width="50px" height="41px" viewBox="0 0 50 41" version="1.1" xmlns="http://www.w3.org/2000/svg" xmlns:xlink="http://www.w3.org/1999/xlink">
    <!-- Generator: Sketch 41 (35326) - http://www.bohemiancoding.com/sketch -->
    <title>IconeCriarPonto</title>
    <desc>Created with Sketch.</desc>
    <defs></defs>
    <g id="Tueddin" stroke="none" stroke-width="1" fill="none" fill-rule="evenodd">
        <g id="iPhone-7-home" transform="translate(-251.000000, -252.000000)" fill="#FFFFFF">
            <g id="IconeCriarPonto" transform="translate(251.000000, 252.000000)">
                <path d="M23.05,15.95 L17.25,15.95 L17.25,13.05 L23.05,13.05 L23.05,7.25 L25.95,7.25 L25.95,13.05 L31.75,13.05 L31.75,15.95 L25.95,15.95 L25.95,21.75 L23.05,21.75 L23.05,15.95 Z M24.5,29 C32.5081293,29 39,22.5081293 39,14.5 C39,6.49187073 32.5081293,0 24.5,0 C16.4918707,0 10,6.49187073 10,14.5 C10,22.5081293 16.4918707,29 24.5,29 Z M24.5,26.1 C30.9065034,26.1 36.1,20.9065034 36.1,14.5 C36.1,8.09349658 30.9065034,2.9 24.5,2.9 C18.0934966,2.9 12.9,8.09349658 12.9,14.5 C12.9,20.9065034 18.0934966,26.1 24.5,26.1 Z" id="icon-plus"></path>
                <text id="CRIAR-PONTO" font-family=".SFNSDisplay-Bold, .SF NS Display" font-size="7.6500001" font-weight="bold">
                    <tspan x="0" y="40">CRIAR PONTO</tspan>
                </text>
            </g>
        </g>
    </g>
</svg>