<?xml version="1.0" encoding="UTF-8" standalone="no"?>
<svg width="22px" height="22px" viewBox="0 0 22 22" version="1.1" xmlns="http://www.w3.org/2000/svg" xmlns:xlink="http://www.w3.org/1999/xlink">
    <!-- Generator: Sketch 42 (36781) - http://www.bohemiancoding.com/sketch -->
    <title>comentarios</title>
    <desc>Created with Sketch.</desc>
    <defs></defs>
    <g id="Tueddin" stroke="none" stroke-width="1" fill="none" fill-rule="evenodd">
        <g id="iPhone-7-locais" transform="translate(-300.000000, -349.000000)" stroke="#42A5F5" fill="#42A5F5">
            <g id="casa-show" transform="translate(16.000000, 76.000000)">
                <path d="M297.298584,290.060068 L295.014586,292.87073 L292.730588,290.060068 C288.780985,289.237529 285.857678,286.346415 285.857678,282.895357 C285.857678,278.80519 289.95763,275.48929 295.014586,275.48929 C300.071542,275.48929 304.171494,278.80519 304.171494,282.895357 C304.171494,286.346415 301.248187,289.237529 297.298584,290.060068 L297.298584,290.060068 Z M295.014586,274.205924 C289.237916,274.205924 284.555525,278.159645 284.555525,283.036308 C284.555525,287.058252 287.743577,290.445593 292.10043,291.512061 L295.014586,294.802216 L297.929396,291.512061 C302.285595,290.445593 305.473647,287.058252 305.473647,283.036308 C305.473647,278.159645 300.791256,274.205924 295.014586,274.205924 L295.014586,274.205924 Z" id="comentarios"></path>
            </g>
        </g>
    </g>
</svg>