<?xml version="1.0" encoding="UTF-8" standalone="no"?>
<svg width="34px" height="34px" viewBox="0 0 34 34" version="1.1" xmlns="http://www.w3.org/2000/svg" xmlns:xlink="http://www.w3.org/1999/xlink">
    <!-- Generator: Sketch 42 (36781) - http://www.bohemiancoding.com/sketch -->
    <title>compartilhar</title>
    <desc>Created with Sketch.</desc>
    <defs></defs>
    <g id="Tueddin" stroke="none" stroke-width="1" fill="none" fill-rule="evenodd">
        <g id="iPhone-7-locais" transform="translate(-170.000000, -343.000000)">
            <g id="casa-show" transform="translate(16.000000, 76.000000)">
                <g id="compartilhar" transform="translate(154.000000, 267.000000)">
                    <ellipse id="Oval-1" fill="#FFCA28" cx="16.8843491" cy="16.9703941" rx="16.8843491" ry="16.9703941"></ellipse>
                    <path d="M20.5162201,24.620481 C19.391399,24.620481 18.4797306,23.6977588 18.4797306,22.5592995 C18.4797306,21.4208403 19.391399,20.4981181 20.5162201,20.4981181 C21.6410411,20.4981181 22.5527095,21.4208403 22.5527095,22.5592995 C22.5527095,23.6977588 21.6410411,24.620481 20.5162201,24.620481 L20.5162201,24.620481 Z M11.0126025,19.1239971 C9.88778147,19.1239971 8.97611301,18.2012748 8.97611301,17.0628156 C8.97611301,15.9250434 9.88778147,15.0016341 11.0126025,15.0016341 C12.1374235,15.0016341 13.049092,15.9250434 13.049092,17.0628156 C13.049092,18.2012748 12.1374235,19.1239971 11.0126025,19.1239971 L11.0126025,19.1239971 Z M20.5162201,9.50515022 C21.6410411,9.50515022 22.5527095,10.4278725 22.5527095,11.5663317 C22.5527095,12.7047909 21.6410411,13.6275132 20.5162201,13.6275132 C19.391399,13.6275132 18.4797306,12.7047909 18.4797306,11.5663317 C18.4797306,10.4278725 19.391399,9.50515022 20.5162201,9.50515022 L20.5162201,9.50515022 Z M20.5162201,19.1239971 C19.3146913,19.1239971 18.2658992,19.759528 17.6624195,20.7124809 L14.0272857,18.6100758 C14.2621609,18.1428747 14.4067516,17.6220829 14.4067516,17.0628156 C14.4067516,16.7172242 14.3409051,16.3901834 14.2472266,16.0755097 L18.0289876,13.8885961 C18.6487592,14.568786 19.5298803,15.0016341 20.5162201,15.0016341 C22.391148,15.0016341 23.9103692,13.4639928 23.9103692,11.5663317 C23.9103692,9.66867061 22.391148,8.13102923 20.5162201,8.13102923 C18.6412921,8.13102923 17.1220709,9.66867061 17.1220709,11.5663317 C17.1220709,11.9119231 17.1879174,12.2389639 17.2815959,12.5543247 L13.499835,14.7405512 C12.8800633,14.0610483 11.9989422,13.6275132 11.0126025,13.6275132 C9.13767451,13.6275132 7.61845336,15.1651545 7.61845336,17.0628156 C7.61845336,18.9604767 9.13767451,20.4981181 11.0126025,20.4981181 C11.7864685,20.4981181 12.4917727,20.2260421 13.0626686,19.7849493 L13.049092,19.8110576 L17.1594066,22.1882869 C17.14583,22.3119578 17.1220709,22.4315063 17.1220709,22.5592995 C17.1220709,24.4569606 18.6412921,25.994602 20.5162201,25.994602 C22.391148,25.994602 23.9103692,24.4569606 23.9103692,22.5592995 C23.9103692,20.6616385 22.391148,19.1239971 20.5162201,19.1239971 L20.5162201,19.1239971 Z" id="sahre" fill="#FFFFFF"></path>
                </g>
            </g>
        </g>
    </g>
</svg>