<?xml version="1.0" encoding="UTF-8" standalone="no"?>
<svg width="24px" height="24px" viewBox="0 0 24 24" version="1.1" xmlns="http://www.w3.org/2000/svg" xmlns:xlink="http://www.w3.org/1999/xlink">
    <!-- Generator: Sketch 42 (36781) - http://www.bohemiancoding.com/sketch -->
    <title>favoritos</title>
    <desc>Created with Sketch.</desc>
    <defs></defs>
    <g id="Tueddin" stroke="none" stroke-width="1" fill="none" fill-rule="evenodd">
        <g id="iPhone-7-locais" transform="translate(-322.000000, -114.000000)" fill="#BD0FE1">
            <g id="casa-show" transform="translate(16.000000, 76.000000)">
                <path d="M329.91,46.947 C329.703885,46.3303676 329.172044,45.8794592 328.53,45.777 L322.28,44.819 L319.57,39 C319.286256,38.3889305 318.673733,37.9980137 318,37.9980137 C317.326267,37.9980137 316.713744,38.3889305 316.43,39 L313.72,44.817 L307.47,45.775 C306.827176,45.8779567 306.294923,46.3298079 306.088991,46.9473958 C305.883058,47.5649836 306.03761,48.2458477 306.49,48.714 L311.07,53.43 L310.01,59.973 C309.89758,60.6302221 310.172186,61.2936559 310.716209,61.6791657 C311.260232,62.0646755 311.977181,62.1038844 312.56,61.78 L318,58.754 L323.44,61.78 C323.697773,61.9207388 323.986319,61.9956235 324.28,61.998 C324.79051,61.9971308 325.27479,61.7717273 325.604162,61.3816816 C325.933534,60.9916359 326.074645,60.4764449 325.99,59.973 L324.93,53.43 L329.51,48.714 C329.962599,48.245779 330.116823,47.564496 329.91,46.947 L329.91,46.947 Z M323.54,52.163 C323.160688,52.5473066 322.989492,53.0906679 323.08,53.623 L324.11,60.006 L318.82,57.056 C318.310214,56.7720186 317.689786,56.7720186 317.18,57.056 L311.89,60.006 L312.92,53.623 C313.010508,53.0906679 312.839312,52.5473066 312.46,52.163 L308.01,47.563 L314.09,46.627 C314.645846,46.5376561 315.12141,46.1789237 315.36,45.669 L318,39.995 L320.64,45.67 C320.878846,46.1795377 321.354365,46.537862 321.91,46.627 L327.99,47.564 L323.54,52.163 Z" id="favoritos"></path>
            </g>
        </g>
    </g>
</svg>