<?xml version="1.0" encoding="UTF-8" standalone="no"?>
<svg width="20px" height="24px" viewBox="0 0 20 24" version="1.1" xmlns="http://www.w3.org/2000/svg" xmlns:xlink="http://www.w3.org/1999/xlink">
    <!-- Generator: Sketch 42 (36781) - http://www.bohemiancoding.com/sketch -->
    <title>gostei</title>
    <desc>Created with Sketch.</desc>
    <defs></defs>
    <g id="Tueddin" stroke="none" stroke-width="1" fill="none" fill-rule="evenodd">
        <g id="iPhone-7-locais" transform="translate(-31.000000, -349.000000)" fill="#EF5350">
            <g id="casa-show" transform="translate(16.000000, 76.000000)">
                <path d="M25.1560228,294.618004 C20.4627447,294.618004 16.6590615,290.746535 16.6590615,286.400433 C16.6590615,285.391206 16.6819664,284.571978 17.3979277,283.781646 C17.3203468,284.239663 18.4301238,288.155923 22.0564791,287.950754 C21.8991006,284.97509 21.0760036,277.685111 24.8988973,275.165296 C24.5612355,279.127069 25.5535328,284.449166 29.9800801,285.226494 C29.726649,283.637884 29.7569426,280.995257 30.8947965,280.506898 C31.0174483,282.940745 32.857964,284.441941 32.857964,286.78115 C32.857964,291.017444 28.666376,294.618004 25.1560228,294.618004 L25.1560228,294.618004 Z M32.1050593,277.968301 C28.8651311,278.871331 28.2718215,281.432323 28.4809206,283.059222 C26.1697472,280.402147 26.264322,277.347016 26.264322,272.945288 C18.8520164,275.678217 20.5757912,283.55625 20.3533925,285.948918 C18.4892331,284.457112 18.1367939,280.89195 18.1367939,280.89195 C16.1684544,281.882394 15.1813291,284.526465 15.1813291,286.671342 C15.1813291,291.858345 19.4815304,296.062852 24.7865897,296.062852 C30.0916489,296.062852 34.3918502,291.858345 34.3918502,286.671342 C34.3918502,283.588759 32.0769824,282.167029 32.1050593,277.968301 L32.1050593,277.968301 Z" id="gostei"></path>
            </g>
        </g>
    </g>
</svg>