<?xml version="1.0" encoding="UTF-8" standalone="no"?>
<svg width="20px" height="24px" viewBox="0 0 20 24" version="1.1" xmlns="http://www.w3.org/2000/svg" xmlns:xlink="http://www.w3.org/1999/xlink">
    <!-- Generator: Sketch 42 (36781) - http://www.bohemiancoding.com/sketch -->
    <title>notificacoes</title>
    <desc>Created with Sketch.</desc>
    <defs></defs>
    <g id="Tueddin" stroke="none" stroke-width="1" fill="none" fill-rule="evenodd">
        <g id="iPhone-7-locais" transform="translate(-283.000000, -114.000000)" fill="#FF462B">
            <g id="casa-show" transform="translate(16.000000, 76.000000)">
                <g id="notificacoes" transform="translate(267.000000, 38.000000)">
                    <path d="M18.076,20 C17.557,20 17.117,19.598 17.08,19.071 L16.579,12.054 C16.336,8.659 13.481,6 10.077,6 C6.674,6 3.818,8.659 3.576,12.054 L3.275,16.264 C3.236,16.815 2.771,17.227 2.207,17.191 C1.656,17.152 1.241,16.673 1.281,16.123 L1.582,11.911 C1.897,7.475 5.629,4 10.077,4 C14.524,4 18.257,7.475 18.573,11.911 L19.074,18.929 C19.114,19.48 18.699,19.958 18.148,19.998 C18.124,19.999 18.1,20 18.076,20" id="Fill-149"></path>
                    <path d="M19,21 L1,21 C0.447,21 0,20.552 0,20 C0,19.448 0.447,19 1,19 L19,19 C19.553,19 20,19.448 20,20 C20,20.552 19.553,21 19,21" id="Fill-150"></path>
                    <path d="M10.178,23.94 C7.929,23.94 5.949,22.427 5.363,20.261 C5.281,19.96 5.345,19.64 5.534,19.392 C5.724,19.145 6.017,19 6.328,19 L14.027,19 C14.339,19 14.632,19.145 14.821,19.392 C15.011,19.64 15.074,19.96 14.992,20.261 C14.406,22.427 12.427,23.94 10.178,23.94 L10.178,23.94 Z M8,21 C8.552,21.585 9.333,21.94 10.178,21.94 C11.023,21.94 11.804,21.585 12.356,21 L8,21 L8,21 Z" id="Fill-151"></path>
                    <path d="M12.178,6 C11.625,6 11.178,5.552 11.178,5 L11.178,3 C11.178,2.449 10.729,2 10.178,2 C9.626,2 9.178,2.449 9.178,3 L9.178,5 C9.178,5.552 8.73,6 8.178,6 C7.625,6 7.178,5.552 7.178,5 L7.178,3 C7.178,1.346 8.523,0 10.178,0 C11.832,0 13.178,1.346 13.178,3 L13.178,5 C13.178,5.552 12.731,6 12.178,6" id="Fill-152"></path>
                </g>
            </g>
        </g>
    </g>
</svg>