<?xml version="1.0" encoding="UTF-8" standalone="no"?>
<svg width="36px" height="37px" viewBox="0 0 36 37" version="1.1" xmlns="http://www.w3.org/2000/svg" xmlns:xlink="http://www.w3.org/1999/xlink">
    <!-- Generator: Sketch 42 (36781) - http://www.bohemiancoding.com/sketch -->
    <title>comentarios@1x</title>
    <desc>Created with Sketch.</desc>
    <defs>
        <circle id="path-1" cx="18" cy="18" r="18"></circle>
        <mask id="mask-2" maskContentUnits="userSpaceOnUse" maskUnits="objectBoundingBox" x="0" y="0" width="36" height="36" fill="white">
            <use xlink:href="#path-1"></use>
        </mask>
    </defs>
    <g id="Tueddin" stroke="none" stroke-width="1" fill="none" fill-rule="evenodd">
        <g id="Feed" transform="translate(-91.000000, -302.000000)">
            <g id="terceira-activity" transform="translate(0.000000, 143.500000)">
                <g id="social2" transform="translate(91.000000, 159.000000)">
                    <g id="comentarios">
                        <g>
                            <use id="Oval-89" stroke="#000000" mask="url(#mask-2)" stroke-width="1.8" opacity="0.1" xlink:href="#path-1"></use>
                            <path d="M23.0909091,12.2727273 C23.4421818,12.2727273 23.7272727,12.5578182 23.7272727,12.9090909 L23.7272727,19.9090909 C23.7272727,20.2597273 23.4421818,20.5454545 23.0909091,20.5454545 L17.5920909,20.5454545 L14.8181818,22.5270909 L14.8181818,20.5454545 L12.9090909,20.5454545 C12.5578182,20.5454545 12.2727273,20.2597273 12.2727273,19.9090909 L12.2727273,12.9090909 C12.2727273,12.5578182 12.5578182,12.2727273 12.9090909,12.2727273 L23.0909091,12.2727273 M23.0909091,11 L12.9090909,11 C11.8546364,11 11,11.8546364 11,12.9090909 L11,19.9090909 C11,20.9635455 11.8546364,21.8181818 12.9090909,21.8181818 L13.5454545,21.8181818 L13.5454545,25 L18,21.8181818 L23.0909091,21.8181818 C24.1453636,21.8181818 25,20.9635455 25,19.9090909 L25,12.9090909 C25,11.8546364 24.1453636,11 23.0909091,11" id="Imported-Layers" fill="#4A4A4A"></path>
                        </g>
                    </g>
                </g>
            </g>
        </g>
    </g>
</svg>