<?xml version="1.0" encoding="UTF-8" standalone="no"?>
<svg width="37px" height="37px" viewBox="0 0 37 37" version="1.1" xmlns="http://www.w3.org/2000/svg" xmlns:xlink="http://www.w3.org/1999/xlink">
    <!-- Generator: Sketch 42 (36781) - http://www.bohemiancoding.com/sketch -->
    <title>compartilhar@1x</title>
    <desc>Created with Sketch.</desc>
    <defs>
        <circle id="path-1" cx="18" cy="18" r="18"></circle>
        <mask id="mask-2" maskContentUnits="userSpaceOnUse" maskUnits="objectBoundingBox" x="0" y="0" width="36" height="36" fill="white">
            <use xlink:href="#path-1"></use>
        </mask>
    </defs>
    <g id="Tueddin" stroke="none" stroke-width="1" fill="none" fill-rule="evenodd">
        <g id="Feed" transform="translate(-291.000000, -302.000000)">
            <g id="terceira-activity" transform="translate(0.000000, 143.500000)">
                <g id="social2" transform="translate(91.000000, 159.000000)">
                    <g id="Share" transform="translate(200.500000, 0.000000)">
                        <g id="compartilhar">
                            <use id="Oval-89-Copy" stroke="#000000" mask="url(#mask-2)" stroke-width="1.8" opacity="0.1" xlink:href="#path-1"></use>
                            <path d="M21.5,24 C20.6715,24 20,23.3285 20,22.5 C20,21.6715 20.6715,21 21.5,21 C22.3285,21 23,21.6715 23,22.5 C23,23.3285 22.3285,24 21.5,24 L21.5,24 Z M14.5,20 C13.6715,20 13,19.3285 13,18.5 C13,17.672 13.6715,17 14.5,17 C15.3285,17 16,17.672 16,18.5 C16,19.3285 15.3285,20 14.5,20 L14.5,20 Z M21.5,13 C22.3285,13 23,13.6715 23,14.5 C23,15.3285 22.3285,16 21.5,16 C20.6715,16 20,15.3285 20,14.5 C20,13.6715 20.6715,13 21.5,13 L21.5,13 Z M21.5,20 C20.615,20 19.8425,20.4625 19.398,21.156 L16.7205,19.626 C16.8935,19.286 17,18.907 17,18.5 C17,18.2485 16.9515,18.0105 16.8825,17.7815 L19.668,16.19 C20.1245,16.685 20.7735,17 21.5,17 C22.881,17 24,15.881 24,14.5 C24,13.119 22.881,12 21.5,12 C20.119,12 19,13.119 19,14.5 C19,14.7515 19.0485,14.9895 19.1175,15.219 L16.332,16.81 C15.8755,16.3155 15.2265,16 14.5,16 C13.119,16 12,17.119 12,18.5 C12,19.881 13.119,21 14.5,21 C15.07,21 15.5895,20.802 16.01,20.481 L16,20.5 L19.0275,22.23 C19.0175,22.32 19,22.407 19,22.5 C19,23.881 20.119,25 21.5,25 C22.881,25 24,23.881 24,22.5 C24,21.119 22.881,20 21.5,20 L21.5,20 Z" id="Fill-98" fill="#4A4A4A"></path>
                        </g>
                    </g>
                </g>
            </g>
        </g>
    </g>
</svg>