<?xml version="1.0" encoding="UTF-8" standalone="no"?>
<svg width="36px" height="37px" viewBox="0 0 36 37" version="1.1" xmlns="http://www.w3.org/2000/svg" xmlns:xlink="http://www.w3.org/1999/xlink">
    <!-- Generator: Sketch 42 (36781) - http://www.bohemiancoding.com/sketch -->
    <title>gostei@1x</title>
    <desc>Created with Sketch.</desc>
    <defs>
        <circle id="path-1" cx="18" cy="18" r="18"></circle>
        <mask id="mask-2" maskContentUnits="userSpaceOnUse" maskUnits="objectBoundingBox" x="0" y="0" width="36" height="36" fill="white">
            <use xlink:href="#path-1"></use>
        </mask>
    </defs>
    <g id="Tueddin" stroke="none" stroke-width="1" fill="none" fill-rule="evenodd">
        <g id="Feed" transform="translate(-191.000000, -302.000000)">
            <g id="terceira-activity" transform="translate(0.000000, 143.500000)">
                <g id="social2" transform="translate(91.000000, 159.000000)">
                    <g id="Like" transform="translate(100.000000, 0.000000)">
                        <g id="gostei">
                            <use id="Oval-89" stroke="#000000" mask="url(#mask-2)" stroke-width="1.8" opacity="0.1" xlink:href="#path-1"></use>
                            <path d="M23.0887059,17.9070598 L17.9078319,24.0887059 L12.726958,17.8815871 C12.1074118,17.0206986 11.863479,16.4391455 11.863479,15.6430179 C11.863479,14.1582657 12.9233995,12.822032 14.453916,12.8095116 C15.7128683,12.7991498 17.1401991,14.08487 17.9078319,15.0541252 C18.655173,14.1189774 20.1027955,12.8095116 21.3617479,12.8095116 C22.8516809,12.8095116 23.9521849,14.1582657 23.9521849,15.6430179 C23.9521849,16.4391455 23.7591973,17.0638725 23.0887059,17.9070598 L23.0887059,17.9070598 Z M21.3617479,12 C19.9227601,12 18.8339131,12.8444825 17.9078319,13.726958 C17.0257881,12.790515 15.8929037,12 14.453916,12 C12.4273308,12 11,13.7425006 11,15.6430179 C11,16.6623548 11.4174921,17.3963119 11.8747042,18.0862317 L17.2425214,24.5217406 C17.844798,25.1594198 17.9587772,25.1594198 18.5610538,24.5217406 L23.9409596,18.0862317 C24.478907,17.3963119 24.8156638,16.6623548 24.8156638,15.6430179 C24.8156638,13.7425006 23.3883331,12 21.3617479,12 L21.3617479,12 Z" id="Fill-72" stroke="#4A4A4A" stroke-width="0.5" fill="#4A4A4A"></path>
                        </g>
                    </g>
                </g>
            </g>
        </g>
    </g>
</svg>