<?xml version="1.0" encoding="UTF-8" standalone="no"?>
<svg width="8px" height="10px" viewBox="0 0 8 10" version="1.1" xmlns="http://www.w3.org/2000/svg" xmlns:xlink="http://www.w3.org/1999/xlink">
    <!-- Generator: Sketch 42 (36781) - http://www.bohemiancoding.com/sketch -->
    <title>pin@1x</title>
    <desc>Created with Sketch.</desc>
    <defs></defs>
    <g id="Tueddin" stroke="none" stroke-width="1" fill="none" fill-rule="evenodd">
        <g id="Feed" transform="translate(-70.000000, -416.000000)" fill="#AAAAAA">
            <g id="primeira-Activity" transform="translate(0.000000, 364.000000)">
                <g id="pin" transform="translate(70.000000, 52.000000)">
                    <path d="M3.81236,6.00252 C2.59916,6.00252 1.61236,5.01572 1.61236,3.80252 C1.61236,2.58932 2.59916,1.60252 3.81236,1.60252 C5.02556,1.60252 6.01236,2.58932 6.01236,3.80252 C6.01236,5.01572 5.02556,6.00252 3.81236,6.00252 M3.81236,0.00252 C1.64596,0.00252 0.01236,1.72212 0.01236,4.00252 C0.01236,6.87172 3.54516,9.45612 3.69516,9.56452 C3.72996,9.59012 3.77156,9.60252 3.81236,9.60252 C3.85356,9.60252 3.89476,9.59012 3.92956,9.56452 C4.07996,9.45612 7.61236,6.87172 7.61236,4.00252 C7.61236,1.72212 5.97876,0.00252 3.81236,0.00252" id="Fill-2800"></path>
                </g>
            </g>
        </g>
    </g>
</svg>