<?xml version="1.0" encoding="UTF-8" standalone="no"?>
<svg width="42px" height="50px" viewBox="0 0 42 50" version="1.1" xmlns="http://www.w3.org/2000/svg" xmlns:xlink="http://www.w3.org/1999/xlink">
    <!-- Generator: Sketch 41 (35326) - http://www.bohemiancoding.com/sketch -->
    <title>iconePontoDeEncontro</title>
    <desc>Created with Sketch.</desc>
    <defs></defs>
    <g id="Tueddin" stroke="none" stroke-width="1" fill="none" fill-rule="evenodd">
        <g id="iPhone-7-home" transform="translate(-80.000000, -119.000000)" fill="#FFFFFF">
            <g id="iconePontoDeEncontro" transform="translate(80.000000, 119.000000)">
                <g id="Fill-192-+-Fill-193-+-Fill-194" transform="translate(3.000000, 0.000000)">
                    <path d="M21.2853333,31.732 C20.796,31.732 20.3053333,31.596 19.8693333,31.324 L10.716,25.6026667 C10.1186667,26.0306667 9.28533333,25.8906667 8.85733333,25.2946667 C8.428,24.696 8.56666667,23.8626667 9.16533333,23.4333333 C10.0466667,22.804 11.2066667,22.7666667 12.1306667,23.3426667 L21.284,29.064 L29.3333333,23.3133333 L29.3333333,3.924 L22.8333333,8.56666667 C21.9533333,9.19733333 20.7893333,9.232 19.8693333,8.65733333 L10.716,2.936 L2.66666667,8.68666667 L2.66666667,28.076 L4.93866667,26.452 C5.53733333,26.0213333 6.36933333,26.1586667 6.8,26.7573333 C7.22933333,27.356 7.092,28.1893333 6.49333333,28.6186667 L4.216,30.2466667 C3.4,30.8266667 2.33733333,30.904 1.44666667,30.448 C0.554666667,29.988 0,29.08 0,28.076 L0,8.68666667 C0,7.82666667 0.417333333,7.016 1.11733333,6.51733333 L9.16666667,0.766666667 C10.0466667,0.136 11.2106667,0.102666667 12.1306667,0.676 L21.284,6.39733333 L27.784,1.75466667 C28.5986667,1.172 29.66,1.09466667 30.5533333,1.552 C31.4453333,2.012 32,2.92 32,3.924 L32,23.3133333 C32,24.1733333 31.5813333,24.984 30.8826667,25.4826667 L22.8333333,31.2333333 C22.3693333,31.5653333 21.828,31.732 21.2853333,31.732" id="Fill-192"></path>
                    <path d="M21.3333333,26.6666667 C20.596,26.6666667 20,26.0706667 20,25.3333333 L20,8 C20,7.26266667 20.596,6.66666667 21.3333333,6.66666667 C22.0706667,6.66666667 22.6666667,7.26266667 22.6666667,8 L22.6666667,25.3333333 C22.6666667,26.0706667 22.0706667,26.6666667 21.3333333,26.6666667" id="Fill-193"></path>
                    <path d="M10.6666667,25.3333333 C9.92933333,25.3333333 9.33333333,24.7373333 9.33333333,24 L9.33333333,6.66666667 C9.33333333,5.92933333 9.92933333,5.33333333 10.6666667,5.33333333 C11.404,5.33333333 12,5.92933333 12,6.66666667 L12,24 C12,24.7373333 11.404,25.3333333 10.6666667,25.3333333" id="Fill-194"></path>
                </g>
                <text id="PONTO-DE-ENCONTRO" font-family=".SFNSDisplay-Bold, .SF NS Display" font-size="7.6500001" font-weight="bold">
                    <tspan x="2.2504026" y="40">PONTO DE </tspan>
                    <tspan x="0.083898665" y="49">ENCONTRO</tspan>
                </text>
            </g>
        </g>
    </g>
</svg>