<?xml version="1.0" encoding="UTF-8" standalone="no"?>
<svg width="77px" height="79px" viewBox="0 0 77 79" version="1.1" xmlns="http://www.w3.org/2000/svg" xmlns:xlink="http://www.w3.org/1999/xlink">
    <!-- Generator: Sketch 42 (36781) - http://www.bohemiancoding.com/sketch -->
    <title>botao_home@1x</title>
    <desc>Created with Sketch.</desc>
    <defs>
        <filter x="-50%" y="-50%" width="200%" height="200%" filterUnits="objectBoundingBox" id="filter-1">
            <feGaussianBlur stdDeviation="2.02" in="SourceGraphic"></feGaussianBlur>
        </filter>
        <linearGradient x1="50%" y1="0%" x2="50%" y2="100%" id="linearGradient-2">
            <stop stop-color="#FFFFFF" offset="0%"></stop>
            <stop stop-color="#FAFAFA" offset="100%"></stop>
        </linearGradient>
        <path d="M38.5,63.8414634 C56.0825373,63.8414634 70.336,49.5664449 70.336,31.9573171 C70.336,14.3481893 56.0825373,0.0731707317 38.5,0.0731707317 C20.9174627,0.0731707317 6.664,14.3481893 6.664,31.9573171 C6.664,49.5664449 20.9174627,63.8414634 38.5,63.8414634 Z" id="path-3"></path>
        <filter x="-50%" y="-50%" width="200%" height="200%" filterUnits="objectBoundingBox" id="filter-4">
            <feOffset dx="0" dy="1" in="SourceAlpha" result="shadowOffsetOuter1"></feOffset>
            <feGaussianBlur stdDeviation="1.5" in="shadowOffsetOuter1" result="shadowBlurOuter1"></feGaussianBlur>
            <feColorMatrix values="0 0 0 0 0.789111755   0 0 0 0 0.79882996   0 0 0 0 0.818266369  0 0 0 1 0" type="matrix" in="shadowBlurOuter1"></feColorMatrix>
        </filter>
        <filter x="-50%" y="-50%" width="200%" height="200%" filterUnits="objectBoundingBox" id="filter-5">
            <feGaussianBlur stdDeviation="0.5" in="SourceAlpha" result="shadowBlurInner1"></feGaussianBlur>
            <feOffset dx="0" dy="2" in="shadowBlurInner1" result="shadowOffsetInner1"></feOffset>
            <feComposite in="shadowOffsetInner1" in2="SourceAlpha" operator="arithmetic" k2="-1" k3="1" result="shadowInnerInner1"></feComposite>
            <feColorMatrix values="0 0 0 0 1   0 0 0 0 1   0 0 0 0 1  0 0 0 1 0" type="matrix" in="shadowInnerInner1"></feColorMatrix>
        </filter>
        <path d="M5.68595349,0.0555 C3.67404651,0.35725 1.77699225,1.010125 0.0571782946,1.950875 L15.9631628,1.950875 L15.9631628,1.711375 C14.3655194,0.899125 12.6243721,0.330875 10.7882171,0.0555 L5.68595349,0.0555 L5.68595349,0.0555 Z" id="path-6"></path>
        <path d="M1.8479447,0.039875 C1.2123871,0.626 0.62037788,1.26 0.0785115207,1.93525 L26.8995899,1.93525 C26.3578479,1.26 25.7657143,0.626 25.1301567,0.039875 L1.8479447,0.039875 L1.8479447,0.039875 Z" id="path-8"></path>
        <path d="M0.951384615,0.028375 C0.637169231,0.639625 0.358030769,1.27225 0.116553846,1.92375 L31.9849846,1.92375 C31.7435077,1.27225 31.4643692,0.639625 31.1500308,0.028375 L0.951384615,0.028375 L0.951384615,0.028375 Z" id="path-10"></path>
        <path d="M0.322516449,0.0129146341 C0.123711969,1.03244273 0.0196971216,2.08449568 0.0196971216,3.16012195 C0.0196971216,11.8926964 6.87630498,19.0716503 15.6515336,19.9064841 L15.6515336,0.0129146341 L0.322516449,0.0129146341 L0.322516449,0.0129146341 Z" id="path-12"></path>
        <path d="M0.00411506745,19.9386472 C8.9611009,19.2785151 16.0170218,12.0187097 16.0170218,3.16012195 C16.0170218,2.08449568 15.913007,1.03244273 15.7142023,0.0129146341 L0.00411506745,0.0129146341 L0.00411506745,19.9386472 L0.00411506745,19.9386472 Z" id="path-14"></path>
        <path d="M0.0854755788,0.00167073171 C0.661268411,6.43110355 4.96391597,11.8253676 10.8863608,14.1403388 L10.8863608,0.00167073171 L0.0854755788,0.00167073171 L0.0854755788,0.00167073171 Z" id="path-16"></path>
        <path d="M0.00189443654,14.2841927 C6.12017833,12.0549202 10.5957178,6.56818608 11.1837872,0.00167073171 L0.00189443654,0.00167073171 L0.00189443654,14.2841927 L0.00189443654,14.2841927 Z" id="path-18"></path>
        <path d="M0.125120633,7.13328128 C2.47494375,5.29975017 4.32184471,2.88426662 5.43334441,0.112366035 L0.125120633,0.112365854 L0.125120633,7.13328128 L0.125120633,7.13328128 Z" id="path-20"></path>
        <path d="M0.0647870989,0.112365854 C1.11549317,2.73265702 2.82335476,5.03445347 4.99199084,6.82723963 L4.99199084,0.112365854 L0.0647870989,0.112365854 L0.0647870989,0.112365854 Z" id="path-22"></path>
        <path d="M0.0457894737,1.49866667 C0.0457894737,2.31433333 0.673578947,2.9755 1.44789474,2.9755 C2.22205263,2.9755 2.84968421,2.31433333 2.84968421,1.49866667 C2.84968421,0.683 2.22205263,0.0218333333 1.44789474,0.0218333333 C0.673578947,0.0218333333 0.0457894737,0.683 0.0457894737,1.49866667 L0.0457894737,1.49866667 Z" id="path-24"></path>
        <polygon id="path-26" points="0.0144205128 4 3.91718974 4 3.91718974 0.100871795 0.0144205128 0.100871795 0.0144205128 4"></polygon>
        <path d="M0.0636315789,1.45452632 C0.0636315789,2.22726316 0.691263158,2.85378947 1.46542105,2.85378947 C2.23973684,2.85378947 2.86736842,2.22726316 2.86736842,1.45452632 C2.86736842,0.681789474 2.23973684,0.0552631579 1.46542105,0.0552631579 C0.691263158,0.0552631579 0.0636315789,0.681789474 0.0636315789,1.45452632 L0.0636315789,1.45452632 Z" id="path-28"></path>
        <path d="M0.128052632,1.45105263 C0.128052632,2.22378947 0.755684211,2.85015789 1.53,2.85015789 C2.30415789,2.85015789 2.93178947,2.22378947 2.93178947,1.45105263 C2.93178947,0.678315789 2.30415789,0.0517894737 1.53,0.0517894737 C0.755684211,0.0517894737 0.128052632,0.678315789 0.128052632,1.45105263 L0.128052632,1.45105263 Z" id="path-30"></path>
    </defs>
    <g id="Tueddin" stroke="none" stroke-width="1" fill="none" fill-rule="evenodd">
        <g id="Profile" transform="translate(-149.000000, -856.000000)">
            <g id="barra-de-ferramentas" transform="translate(-4.000000, 852.000000)">
                <g id="botao_home" transform="translate(153.000000, 6.000000)">
                    <path d="M5.65333333,34.9939024 C5.65333333,55.9571498 20.3592869,72.9512195 38.5,72.9512195 L38.5,72.9512195 C56.6407131,72.9512195 71.3466667,55.9571498 71.3466667,34.9939024" id="Oval" fill="#000000" opacity="0.100000001" filter="url(#filter-1)"></path>
                    <path d="M0.6,31.9573171 C0.6,52.9205644 17.568408,69.9146341 38.5,69.9146341 L38.5,69.9146341 C59.431592,69.9146341 76.4,52.9205644 76.4,31.9573171" id="Oval" fill-opacity="0.9" fill="#FAFAFA"></path>
                    <g id="Shape">
                        <use fill="black" fill-opacity="1" filter="url(#filter-4)" xlink:href="#path-3"></use>
                        <use fill="url(#linearGradient-2)" fill-rule="evenodd" xlink:href="#path-3"></use>
                        <use fill="black" fill-opacity="1" filter="url(#filter-5)" xlink:href="#path-3"></use>
                    </g>
                    <g id="logo" transform="translate(12.000000, 13.000000)">
                        <polygon id="Fill-1" fill="#6B707C" points="19 11 53 11 53 9 19 9"></polygon>
                        <g id="Group-4" transform="translate(18.000000, 0.000000)">
                            <mask id="mask-7" fill="white">
                                <use xlink:href="#path-6"></use>
                            </mask>
                            <g id="Clip-3"></g>
                            <polygon id="Fill-2" fill="#6B707C" mask="url(#mask-7)" points="-0.672372093 2.574 16.5814574 2.574 16.5814574 -0.567625 -0.672372093 -0.567625"></polygon>
                        </g>
                        <g id="Group-7" transform="translate(12.000000, 4.000000)">
                            <mask id="mask-9" fill="white">
                                <use xlink:href="#path-8"></use>
                            </mask>
                            <g id="Clip-6"></g>
                            <polygon id="Fill-5" fill="#6B707C" mask="url(#mask-9)" points="-1.87594009 2.558375 28.6650415 2.558375 28.6650415 -0.58325 -1.87594009 -0.58325"></polygon>
                        </g>
                        <g id="Group-10" transform="translate(10.000000, 9.000000)">
                            <mask id="mask-11" fill="white">
                                <use xlink:href="#path-10"></use>
                            </mask>
                            <g id="Clip-9"></g>
                            <polygon id="Fill-8" fill="#6B707C" mask="url(#mask-11)" points="-1.2048 2.546875 32.9323077 2.546875 32.9323077 -0.59475 -1.2048 -0.59475"></polygon>
                        </g>
                        <g id="Group-29" transform="translate(8.000000, 13.000000)">
                            <g id="Group-13">
                                <mask id="mask-13" fill="white">
                                    <use xlink:href="#path-12"></use>
                                </mask>
                                <g id="Clip-12"></g>
                                <polygon id="Fill-11" fill="#6B707C" mask="url(#mask-13)" points="15.6515336 22.2065732 13.7419165 22.2065732 13.7419165 1.86913415 -1.88643223 1.86913415 -1.88643223 0.0129146341 15.6515336 0.0129146341"></polygon>
                            </g>
                            <g id="Group-16" transform="translate(18.693447, 0.000000)">
                                <mask id="mask-15" fill="white">
                                    <use xlink:href="#path-14"></use>
                                </mask>
                                <g id="Clip-15"></g>
                                <polygon id="Fill-14" fill="#6B707C" mask="url(#mask-15)" points="1.91373219 22.2065732 0.00411506745 22.2065732 0.00411506745 0.0129146341 17.5420809 0.0129146341 17.5420809 1.86913415 1.91373219 1.86913415"></polygon>
                            </g>
                            <g id="Group-19" transform="translate(0.000000, 4.634146)">
                                <mask id="mask-17" fill="white">
                                    <use xlink:href="#path-16"></use>
                                </mask>
                                <g id="Clip-18"></g>
                                <polygon id="Fill-17" fill="#6B707C" mask="url(#mask-17)" points="10.8863608 19.4215488 8.97674364 19.4215488 8.97674364 1.8580122 -6.65160507 1.8580122 -6.65160507 0.00167073171 10.8863608 0.00167073171"></polygon>
                            </g>
                            <g id="Group-22" transform="translate(23.460903, 4.634146)">
                                <mask id="mask-19" fill="white">
                                    <use xlink:href="#path-18"></use>
                                </mask>
                                <g id="Clip-21"></g>
                                <polygon id="Fill-20" fill="#6B707C" mask="url(#mask-19)" points="1.91151156 19.4215488 0.00189443654 19.4215488 0.00189443654 0.00167073171 17.5398603 0.00167073171 17.5398603 1.8580122 1.91151156 1.8580122"></polygon>
                            </g>
                            <g id="Group-25" transform="translate(28.102900, 9.146341)">
                                <mask id="mask-21" fill="white">
                                    <use xlink:href="#path-20"></use>
                                </mask>
                                <g id="Clip-24"></g>
                                <polygon id="Fill-23" fill="#6B707C" mask="url(#mask-21)" points="2.03473776 19.5323659 0.125120633 19.5323659 0.125120633 0.112365854 17.6630865 0.112365854 17.6630865 1.96870732 2.03473776 1.96870732"></polygon>
                            </g>
                            <g id="Group-28" transform="translate(1.129134, 9.146341)">
                                <mask id="mask-23" fill="white">
                                    <use xlink:href="#path-22"></use>
                                </mask>
                                <g id="Clip-27"></g>
                                <polygon id="Fill-26" fill="#6B707C" mask="url(#mask-23)" points="4.99199084 19.5323659 3.08237371 19.5323659 3.08237371 1.96870732 -12.545975 1.96870732 -12.545975 0.112365854 4.99199084 0.112365854"></polygon>
                            </g>
                        </g>
                        <polygon id="Fill-30" fill="#6B707C" points="4 15 23 15 23 13 4 13"></polygon>
                        <polygon id="Fill-31" fill="#6B707C" points="27 43 29 43 29 15 27 15"></polygon>
                        <g id="Group-34" transform="translate(27.000000, 41.000000)">
                            <mask id="mask-25" fill="white">
                                <use xlink:href="#path-24"></use>
                            </mask>
                            <g id="Clip-33"></g>
                            <polygon id="Fill-32" fill="#6B707C" mask="url(#mask-25)" points="-0.741157895 3.80633333 3.63678947 3.80633333 3.63678947 -0.809 -0.741157895 -0.809"></polygon>
                        </g>
                        <g id="Group-37" transform="translate(26.000000, 41.000000)">
                            <mask id="mask-27" fill="white">
                                <use xlink:href="#path-26"></use>
                            </mask>
                            <g id="Clip-36"></g>
                            <path d="M1.96580513,1.91861538 C1.89401026,1.91861538 1.83565128,1.97769231 1.83565128,2.05041026 C1.83565128,2.12312821 1.89401026,2.18220513 1.96580513,2.18220513 C2.0376,2.18220513 2.09595897,2.12312821 2.09595897,2.05041026 C2.09595897,1.97769231 2.0376,1.91861538 1.96580513,1.91861538 M1.96580513,4.00005128 C0.889805128,4.00005128 0.0144205128,3.12548718 0.0144205128,2.05041026 C0.0144205128,0.975333333 0.889805128,0.100871795 1.96580513,0.100871795 C3.04180513,0.100871795 3.91718974,0.975333333 3.91718974,2.05041026 C3.91718974,3.12548718 3.04180513,4.00005128 1.96580513,4.00005128" id="Fill-35" fill="#6B707C" mask="url(#mask-27)"></path>
                        </g>
                        <g id="Group-40" transform="translate(49.000000, 9.000000)">
                            <mask id="mask-29" fill="white">
                                <use xlink:href="#path-28"></use>
                            </mask>
                            <g id="Clip-39"></g>
                            <polygon id="Fill-38" fill="#6B707C" mask="url(#mask-29)" points="-0.723473684 3.64089474 3.65447368 3.64089474 3.65447368 -0.731684211 -0.723473684 -0.731684211"></polygon>
                        </g>
                        <path d="M51,9.86469567 C50.9265216,9.86469567 50.8667087,9.92540376 50.8667087,10 C50.8667087,10.0745962 50.9265216,10.1353043 51,10.1353043 C51.0735835,10.1353043 51.1333964,10.0745962 51.1333964,10 C51.1333964,9.92540376 51.0735835,9.86469567 51,9.86469567 M51,12 C49.8971933,12 49,11.1027408 49,10 C49,8.89715398 49.8971933,8 51,8 C52.1028067,8 53,8.89715398 53,10 C53,11.1027408 52.1028067,12 51,12" id="Fill-41" fill="#6B707C"></path>
                        <g id="Group-45" transform="translate(1.000000, 13.000000)">
                            <mask id="mask-31" fill="white">
                                <use xlink:href="#path-30"></use>
                            </mask>
                            <g id="Clip-44"></g>
                            <polygon id="Fill-43" fill="#6B707C" mask="url(#mask-31)" points="-0.659052632 3.63726316 3.71889474 3.63726316 3.71889474 -0.735315789 -0.659052632 -0.735315789"></polygon>
                        </g>
                        <path d="M2,13.8646957 C1.92641648,13.8646957 1.8666036,13.9254038 1.8666036,14 C1.8666036,14.0745962 1.92641648,14.1353043 2,14.1353043 C2.07358352,14.1353043 2.1333964,14.0745962 2.1333964,14 C2.1333964,13.9254038 2.07358352,13.8646957 2,13.8646957 M2,16 C0.897193314,16 0,15.1027408 0,14 C0,12.897154 0.897193314,12 2,12 C3.10280669,12 4,12.897154 4,14 C4,15.1027408 3.10280669,16 2,16" id="Fill-46" fill="#6B707C"></path>
                    </g>
                </g>
            </g>
        </g>
    </g>
</svg>