<?xml version="1.0" encoding="UTF-8" standalone="no"?>
<svg width="30px" height="28px" viewBox="0 0 30 28" version="1.1" xmlns="http://www.w3.org/2000/svg" xmlns:xlink="http://www.w3.org/1999/xlink">
    <!-- Generator: Sketch 42 (36781) - http://www.bohemiancoding.com/sketch -->
    <title>conversas@1x</title>
    <desc>Created with Sketch.</desc>
    <defs></defs>
    <g id="Tueddin" stroke="none" stroke-width="1" fill="none" fill-rule="evenodd">
        <g id="Profile" transform="translate(-90.000000, -896.000000)" stroke="#6B707C" stroke-width="1.01" fill="#6B707C">
            <g id="barra-de-ferramentas" transform="translate(-4.000000, 852.000000)">
                <path d="M120.997577,45.0426829 L97.4466292,45.044138 C96.3460498,45.0783331 95.4837476,45.9666762 95.4837476,47.0681925 L95.4837476,63.0118047 C95.4837476,64.1140486 96.3460498,65.0031192 97.4640641,65.0373143 L104.994498,65.0373143 L108.789499,71.1036572 C108.889023,71.2629915 109.063372,71.3597561 109.250798,71.3597561 C109.43895,71.3597561 109.613299,71.2629915 109.712823,71.1036572 L113.511457,65.0380418 L120.997577,65.0380418 C122.113412,65.0380418 123.022207,64.1285997 123.022207,63.0118047 L123.022207,47.06892 C123.022207,45.9513975 122.113412,45.0426829 120.997577,45.0426829 L120.997577,45.0426829 Z M121.932524,63.0118047 C121.932524,63.5269127 121.512633,63.9467112 120.997577,63.9467112 L113.255018,63.9467112 C113.19109,63.9467112 113.132247,63.963445 113.075584,63.9830889 L113.073405,63.9830889 C113.050884,63.991092 113.03127,64.0005502 113.010203,64.010736 C112.901235,64.051479 112.800984,64.1176864 112.73415,64.2246368 L109.251524,69.7860574 L105.771804,64.2246368 C105.703518,64.1155037 105.599635,64.0463861 105.485581,64.0070982 C105.46742,63.99764 105.451438,63.9903645 105.43255,63.9838165 C105.431824,63.9830889 105.431097,63.9830889 105.431097,63.9830889 C105.372981,63.9619899 105.311958,63.9459837 105.246577,63.9459837 L97.4800461,63.9459837 C96.9802451,63.9314326 96.5734302,63.5123617 96.5734302,63.0118047 L96.5734302,47.0681925 C96.5734302,46.5610875 96.9715276,46.1500197 97.4640641,46.1354686 L120.997577,46.1340135 C121.512633,46.1340135 121.932524,46.5530845 121.932524,47.06892 L121.932524,63.0118047 L121.932524,63.0118047 Z M103.796573,54.0570735 C103.110073,54.0570735 102.551429,54.6172899 102.551429,55.3055557 C102.551429,55.993094 103.110073,56.5533103 103.796573,56.5533103 C104.4838,56.5533103 105.04317,55.993094 105.04317,55.3055557 C105.04317,54.6172899 104.4838,54.0570735 103.796573,54.0570735 L103.796573,54.0570735 Z M103.641112,55.3055557 C103.641112,55.2189768 103.710125,55.1484041 103.796573,55.1484041 C103.883748,55.1484041 103.953487,55.2189768 103.953487,55.3055557 C103.952761,55.4787135 103.640385,55.4787135 103.641112,55.3055557 L103.641112,55.3055557 Z M109.210116,54.0570735 C108.52289,54.0570735 107.964246,54.6172899 107.964246,55.3055557 C107.964246,55.993094 108.52289,56.5533103 109.210116,56.5533103 C109.89589,56.5533103 110.453808,55.993094 110.453808,55.3055557 C110.453808,54.6172899 109.89589,54.0570735 109.210116,54.0570735 L109.210116,54.0570735 Z M109.053929,55.3055557 C109.053929,55.2189768 109.122942,55.1484041 109.210116,55.1484041 C109.295112,55.1484041 109.364125,55.2189768 109.364125,55.3055557 C109.364125,55.4823513 109.053929,55.4808962 109.053929,55.3055557 L109.053929,55.3055557 Z M114.624386,54.0570735 C113.93716,54.0570735 113.379242,54.6172899 113.379242,55.3055557 C113.379242,55.993094 113.93716,56.5533103 114.624386,56.5533103 C115.312339,56.5533103 115.87171,55.993094 115.87171,55.3055557 C115.87171,54.6172899 115.312339,54.0570735 114.624386,54.0570735 L114.624386,54.0570735 Z M114.468925,55.3055557 C114.468925,55.2189768 114.538664,55.1484041 114.624386,55.1484041 C114.711561,55.1484041 114.782027,55.2189768 114.782027,55.3055557 C114.782027,55.4787135 114.468925,55.4808962 114.468925,55.3055557 L114.468925,55.3055557 Z" id="conversas"></path>
            </g>
        </g>
    </g>
</svg>