<?xml version="1.0" encoding="UTF-8" standalone="no"?>
<svg width="18px" height="18px" viewBox="0 0 18 18" version="1.1" xmlns="http://www.w3.org/2000/svg" xmlns:xlink="http://www.w3.org/1999/xlink">
    <!-- Generator: Sketch 42 (36781) - http://www.bohemiancoding.com/sketch -->
    <title>buscar</title>
    <desc>Created with Sketch.</desc>
    <defs></defs>
    <g id="Tueddin" stroke="none" stroke-width="1" fill="none" fill-rule="evenodd" opacity="0.899999976">
        <g id="Feed" transform="translate(-335.000000, -32.000000)" fill="#4A4A4A">
            <g id="topo" transform="translate(0.000000, -32.000000)">
                <path d="M345.670467,64 C343.794405,64 341.918793,64.7155134 340.487784,66.1465402 C337.803968,68.8299406 337.636566,73.0766702 339.984231,75.9558242 L339.093226,76.8472909 C338.724673,76.7230886 338.302571,76.8031901 338.009169,77.0965956 L335.309152,79.7970962 C334.896949,80.2093039 334.896949,80.8775665 335.309152,81.2897742 L335.710554,81.6911817 C336.122757,82.1029394 336.791011,82.1029394 337.203214,81.6911817 L339.903231,78.9906811 C340.196632,78.6972756 340.277183,78.2751677 340.152982,77.9070608 L341.044438,77.015594 C342.387696,78.1113646 344.029306,78.6590249 345.670467,78.6590249 C347.546078,78.6590249 349.42214,77.9435114 350.853149,76.5124846 C353.715617,73.6499809 353.715617,69.0090439 350.853149,66.1465402 C349.42214,64.7155134 347.546078,64 345.670467,64 Z M345.670467,76.4806297 C344.294566,76.4806297 343.000907,75.9450741 342.028033,74.9717972 C340.019529,72.9636586 340.019529,69.6953662 342.028033,67.6872276 C343.000907,66.7143406 344.294566,66.1783952 345.670467,66.1783952 C347.046367,66.1783952 348.340026,66.7143406 349.312901,67.6872276 C351.321404,69.6953662 351.321404,72.9636586 349.312901,74.9717972 C348.340026,75.9450741 347.046367,76.4806297 345.670467,76.4806297 Z" id="buscar" transform="translate(344.000000, 73.000000) rotate(-90.000000) translate(-344.000000, -73.000000) "></path>
            </g>
        </g>
    </g>
</svg>