<?xml version="1.0" encoding="UTF-8" standalone="no"?>
<svg width="39px" height="43px" viewBox="0 0 39 43" version="1.1" xmlns="http://www.w3.org/2000/svg" xmlns:xlink="http://www.w3.org/1999/xlink">
    <!-- Generator: Sketch 41 (35326) - http://www.bohemiancoding.com/sketch -->
    <title>IconeExplorar</title>
    <desc>Created with Sketch.</desc>
    <defs></defs>
    <g id="Tueddin" stroke="none" stroke-width="1" fill="none" fill-rule="evenodd">
        <g id="iPhone-7-home" transform="translate(-256.000000, -499.000000)" fill="#FFFFFF">
            <g id="IconeExplorar" transform="translate(256.000000, 499.000000)">
                <g id="Fill-127-+-Fill-128-+-Fill-129" transform="translate(1.000000, 0.000000)">
                    <path d="M16.54304,32.64136 C12.2196,32.64136 8.12872,30.96856 5.02112,27.8596 C1.25528,24.09376 -0.40392,18.8836 0.4692,13.566 C1.61568,6.56472 7.34808,1.04448 14.41056,0.13872 C20.0396,-0.58072 25.53944,1.57624 29.13392,5.91464 C29.61128,6.49128 29.5324,7.34944 28.95304,7.82952 C28.37368,8.30688 27.51688,8.228 27.03816,7.64864 C24.0448,4.03512 19.46432,2.2304 14.756,2.83696 C8.87808,3.5904 4.10584,8.18312 3.15248,14.00664 C2.42352,18.4484 3.80664,22.79768 6.94416,25.93656 C10.0844,29.07544 14.43096,30.45856 18.87544,29.7296 C24.70984,28.77216 29.41952,23.78912 30.07504,17.87992 C30.226,16.52128 30.1784,15.164 29.93768,13.84616 C29.84248,13.33208 29.71736,12.81936 29.56504,12.32296 C29.34472,11.60488 29.74864,10.846 30.46672,10.62568 C31.18752,10.39992 31.9464,10.80792 32.16536,11.52736 C32.3476,12.12168 32.49856,12.7364 32.61144,13.35384 C32.90248,14.9328 32.95824,16.55664 32.77872,18.17912 C31.97904,25.3912 26.44112,31.246 19.31608,32.41424 C18.38584,32.5652 17.45968,32.64136 16.54304,32.64136" id="Fill-127"></path>
                    <path d="M12.48208,21.76 C12.36104,21.76 12.23864,21.74368 12.11896,21.71104 C11.64568,21.57912 11.2812,21.20512 11.16288,20.72912 L8.44288,9.84912 C8.32592,9.38536 8.46328,8.89576 8.80056,8.55848 C9.13784,8.2212 9.63016,8.08384 10.0912,8.2008 L20.9712,10.9208 C21.44584,11.03912 21.8212,11.40496 21.95312,11.87688 C22.08232,12.3488 21.9504,12.85472 21.6036,13.20152 L13.4436,21.36152 C13.18384,21.62128 12.83704,21.76 12.48208,21.76 L12.48208,21.76 Z M11.63072,11.38864 L13.2192,17.73984 L17.98192,12.97712 L11.63072,11.38864 L11.63072,11.38864 Z" id="Fill-128"></path>
                    <path d="M23.36208,24.48 C23.25192,24.48 23.14176,24.4664 23.0316,24.4392 L12.1516,21.7192 C11.67696,21.60088 11.3016,21.23504 11.17104,20.76312 C11.04048,20.2912 11.17376,19.78528 11.52056,19.43848 L19.68056,11.27848 C20.02736,10.93168 20.53328,10.79704 21.00384,10.92896 C21.47712,11.06088 21.8416,11.43488 21.95992,11.91088 L24.67992,22.79088 C24.79688,23.25464 24.66088,23.74424 24.3236,24.08152 C24.0652,24.33992 23.71704,24.48 23.36208,24.48 L23.36208,24.48 Z M15.14224,19.66288 L21.49344,21.25136 L19.90496,14.90016 L15.14224,19.66288 L15.14224,19.66288 Z" id="Fill-129"></path>
                </g>
                <text id="EXPLORAR" font-family=".SFNSDisplay-Bold, .SF NS Display" font-size="7.6500001" font-weight="bold">
                    <tspan x="0" y="42">EXPLORAR</tspan>
                </text>
            </g>
        </g>
    </g>
</svg>