<?xml version="1.0" encoding="utf-8"?>
<!-- Generator: Adobe Illustrator 21.0.1, SVG Export Plug-In . SVG Version: 6.00 Build 0)  -->
<svg version="1.1" id="Camada_1" xmlns="http://www.w3.org/2000/svg" xmlns:xlink="http://www.w3.org/1999/xlink" x="0px" y="0px"
	 viewBox="0 0 24 25" style="enable-background:new 0 0 24 25;" xml:space="preserve">
<style type="text/css">
	.st0{fill:#7ED321;}
</style>
<title>IconePontosTuristicos Copy@1x</title>
<desc>Created with Sketch.</desc>
<g id="Tueddin">
	<g id="iPhone-7-pesquisar" transform="translate(-225.000000, -76.000000)">
		<g id="IconePontosTuristicos-Copy" transform="translate(225.333333, 76.000000)">
			<g id="Group">
				<path id="Fill-162" class="st0" d="M12.9,23.4c-0.2,0-0.5-0.1-0.7-0.3L1.4,12.2c-0.2-0.2-0.3-0.4-0.3-0.7c0-0.3,0.1-0.5,0.3-0.7
					c0.2-0.2,0.4-0.4,0.6-0.6c0.8-0.6,1.9-1,2.9-1.1c0.7-0.1,1.5,0,2.2,0.2c0.9,0.3,1.7,0.8,2.4,1.4l4.1,4.1c1,1,1.6,2.4,1.7,3.8
					c0,0.7-0.1,1.4-0.3,2.1c-0.2,0.6-0.5,1.1-0.8,1.6c-0.2,0.2-0.3,0.4-0.6,0.6C13.4,23.3,13.2,23.4,12.9,23.4L12.9,23.4z M3.5,11.6
					l9.3,9.3c0.1-0.2,0.2-0.5,0.3-0.7c0.2-0.4,0.2-0.9,0.2-1.4c0-1-0.4-1.9-1.1-2.6l-4.1-4.1c-0.5-0.5-1-0.8-1.6-1
					c-0.5-0.1-1-0.2-1.5-0.2C4.6,11.2,4,11.4,3.5,11.6L3.5,11.6z"/>
				<path id="Fill-163" class="st0" d="M2.1,24.4c-0.5,0-1-0.2-1.4-0.6c-0.7-0.7-0.8-1.9-0.1-2.7l4.8-6c0.3-0.4,0.9-0.5,1.3-0.2
					c0.4,0.3,0.5,0.9,0.2,1.4l-4.8,6.1c0,0.1,0,0.1,0,0.1c0,0,0.1,0,0.1,0l6.1-4.8c0.4-0.3,1-0.3,1.3,0.2c0.3,0.4,0.3,1-0.2,1.4
					l-6,4.8C3,24.2,2.6,24.4,2.1,24.4"/>
				<path id="Fill-164" class="st0" d="M15.9,14.3c-0.2,0-0.4-0.1-0.6-0.2c-0.4-0.3-0.5-0.9-0.1-1.4l3.1-3.8
					c0.3-0.4,0.9-0.5,1.4-0.1c0.4,0.3,0.5,0.9,0.1,1.4l-3.1,3.8C16.5,14.2,16.2,14.3,15.9,14.3"/>
				<path id="Fill-165" class="st0" d="M8.2,12c-0.3,0-0.6-0.1-0.7-0.4c-0.3-0.4-0.3-1,0.1-1.4L14,5c-0.3-1.3,0-2.7,1-3.7
					c0.4-0.4,0.8-0.6,1.4-0.6h0c0.5,0,1,0.2,1.4,0.6l5.4,5.4c0.4,0.4,0.6,0.8,0.6,1.4c0,0.5-0.2,1-0.6,1.4c-0.7,0.7-1.7,1.1-2.7,1.1
					c-1,0-2-0.4-2.7-1.1l-1-1c-0.4-0.4-0.4-1,0-1.4c0.4-0.4,1-0.4,1.4,0l1,1c0.7,0.7,2,0.7,2.7,0l-5.4-5.4c-0.6,0.6-0.7,1.5-0.4,2.2
					c0.2,0.4,0.1,0.9-0.2,1.1l-0.1,0.1l-6.8,5.6C8.6,11.9,8.4,12,8.2,12"/>
			</g>
		</g>
	</g>
</g>
</svg>
