<?xml version="1.0" encoding="utf-8"?>
<!-- Generator: Adobe Illustrator 21.0.1, SVG Export Plug-In . SVG Version: 6.00 Build 0)  -->
<svg version="1.1" id="Camada_1" xmlns="http://www.w3.org/2000/svg" xmlns:xlink="http://www.w3.org/1999/xlink" x="0px" y="0px"
	 viewBox="0 0 26 26" style="enable-background:new 0 0 26 26;" xml:space="preserve">
<style type="text/css">
	.st0{fill:#7ED321;}
</style>
<title>iconePontoDeEncontro Copy@1x</title>
<desc>Created with Sketch.</desc>
<g id="Tueddin">
	<g id="iPhone-7-pesquisar" transform="translate(-41.000000, -78.000000)">
		<g id="iconePontoDeEncontro-Copy" transform="translate(41.000000, 78.000000)">
			<g id="Fill-192-_x2B_-Fill-193-_x2B_-Fill-194">
				<path id="Fill-192" class="st0" d="M17.3,25.8c-0.4,0-0.8-0.1-1.2-0.3l-7.4-4.6c-0.5,0.3-1.2,0.2-1.5-0.3
					C6.8,20.1,7,19.4,7.4,19c0.7-0.5,1.7-0.5,2.4-0.1l7.4,4.6l6.5-4.7V3.2L18.6,7c-0.7,0.5-1.7,0.5-2.4,0.1L8.7,2.4L2.2,7.1v15.8
					L4,21.5c0.5-0.3,1.2-0.2,1.5,0.2c0.3,0.5,0.2,1.2-0.2,1.5l-1.9,1.3c-0.7,0.5-1.5,0.5-2.3,0.2C0.5,24.4,0,23.6,0,22.8V7.1
					c0-0.7,0.3-1.4,0.9-1.8l6.5-4.7c0.7-0.5,1.7-0.5,2.4-0.1l7.4,4.6l5.3-3.8c0.7-0.5,1.5-0.5,2.3-0.2C25.5,1.6,26,2.4,26,3.2v15.8
					c0,0.7-0.3,1.4-0.9,1.8l-6.5,4.7C18.2,25.6,17.7,25.8,17.3,25.8"/>
				<path id="Fill-193" class="st0" d="M17.3,21.7c-0.6,0-1.1-0.5-1.1-1.1V6.5c0-0.6,0.5-1.1,1.1-1.1c0.6,0,1.1,0.5,1.1,1.1v14.1
					C18.4,21.2,17.9,21.7,17.3,21.7"/>
				<path id="Fill-194" class="st0" d="M8.7,20.6c-0.6,0-1.1-0.5-1.1-1.1V5.4c0-0.6,0.5-1.1,1.1-1.1c0.6,0,1.1,0.5,1.1,1.1v14.1
					C9.8,20.1,9.3,20.6,8.7,20.6"/>
			</g>
		</g>
	</g>
</g>
</svg>
