<?xml version="1.0" encoding="utf-8"?>
<!-- Generator: Adobe Illustrator 21.0.1, SVG Export Plug-In . SVG Version: 6.00 Build 0)  -->
<svg version="1.1" id="Camada_1" xmlns="http://www.w3.org/2000/svg" xmlns:xlink="http://www.w3.org/1999/xlink" x="0px" y="0px"
	 viewBox="0 0 30 24" style="enable-background:new 0 0 30 24;" xml:space="preserve">
<style type="text/css">
	.st0{fill:#7ED321;}
</style>
<title>IconePessoas Copy@1x</title>
<desc>Created with Sketch.</desc>
<g id="Tueddin">
	<g id="iPhone-7-pesquisar" transform="translate(-126.000000, -77.000000)">
		<g id="IconePessoas-Copy" transform="translate(126.666667, 77.000000)">
			<g id="users">
				<path class="st0" d="M21.9,13.5c-2.7,0-4.8-2.2-4.8-4.8s2.2-4.8,4.8-4.8s4.8,2.2,4.8,4.8S24.6,13.5,21.9,13.5L21.9,13.5z
					 M21.9,5.8c-1.6,0-2.9,1.3-2.9,2.9s1.3,2.9,2.9,2.9s2.9-1.3,2.9-2.9S23.5,5.8,21.9,5.8L21.9,5.8z M13.8,18.7c-1-2-3-3.3-5.3-3.2
					c-4.3,0-6.1,3.5-6.6,7.7H0c0.6-5.2,3.1-9.7,8.5-9.7c2.6-0.1,5.1,1.3,6.5,3.5C14.5,17.5,14.1,18.1,13.8,18.7L13.8,18.7z
					 M8.5,11.6c-3.2,0-5.8-2.6-5.8-5.8S5.3,0,8.5,0s5.8,2.6,5.8,5.8S11.7,11.6,8.5,11.6L8.5,11.6z M8.5,1.9c-2.1,0-3.8,1.7-3.8,3.9
					s1.7,3.9,3.8,3.9s3.8-1.7,3.8-3.9S10.6,1.9,8.5,1.9L8.5,1.9z M21.9,15.5c4.2,0,6.1,3.5,6.6,7.7h-1.9c-0.3-3.2-1.6-5.8-4.7-5.8
					s-4.4,2.6-4.7,5.8h-1.9C15.8,19,17.7,15.5,21.9,15.5L21.9,15.5z"/>
			</g>
		</g>
	</g>
</g>
</svg>
