<?xml version="1.0" encoding="UTF-8" standalone="no"?>
<svg width="30px" height="24px" viewBox="0 0 30 24" version="1.1" xmlns="http://www.w3.org/2000/svg" xmlns:xlink="http://www.w3.org/1999/xlink">
    <!-- Generator: Sketch 42 (36781) - http://www.bohemiancoding.com/sketch -->
    <title>IconePessoas@1x</title>
    <desc>Created with Sketch.</desc>
    <defs></defs>
    <g id="Tueddin" stroke="none" stroke-width="1" fill="none" fill-rule="evenodd">
        <g id="iPhone-7-pesquisar" transform="translate(-126.000000, -77.000000)" fill="#9B9B9B">
            <g id="IconePessoas" transform="translate(126.666667, 77.000000)">
                <g id="users">
                    <path d="M21.9407348,13.5333333 C19.28571,13.5333333 17.1333871,11.3693763 17.1333871,8.7 C17.1333871,6.03062371 19.28571,3.86666667 21.9407348,3.86666667 C24.5957596,3.86666667 26.7480824,6.03062371 26.7480824,8.7 C26.7480824,11.3693763 24.5957596,13.5333333 21.9407348,13.5333333 L21.9407348,13.5333333 Z M21.9407348,5.8 C20.3477199,5.8 19.0563262,7.09837423 19.0563262,8.7 C19.0563262,10.3016258 20.3477199,11.6 21.9407348,11.6 C23.5337497,11.6 24.8251434,10.3016258 24.8251434,8.7 C24.8251434,7.09837423 23.5337497,5.8 21.9407348,5.8 L21.9407348,5.8 Z M13.758629,18.676 C12.7944764,16.6424065 10.7192291,15.3806463 8.48016129,15.4666667 C4.14393369,15.4666667 2.40367384,18.9979 1.91332437,23.2 L0,23.2 C0.624955197,17.9558333 3.0863172,13.5333333 8.48016129,13.5333333 C11.1185648,13.4444445 13.5995163,14.7932477 14.9700806,17.0616667 C14.4895033,17.5369555 14.0812919,18.0809221 13.758629,18.676 L13.758629,18.676 Z M8.48016129,11.6 C5.29413152,11.6 2.71134409,9.00325155 2.71134409,5.8 C2.71134409,2.59674845 5.29413152,0 8.48016129,0 C11.6661911,0 14.2489785,2.59674845 14.2489785,5.8 C14.2489785,9.00325155 11.6661911,11.6 8.48016129,11.6 L8.48016129,11.6 Z M8.48016129,1.93333333 C6.35614145,1.93333333 4.63428315,3.66449897 4.63428315,5.8 C4.63428315,7.93550103 6.35614145,9.66666667 8.48016129,9.66666667 C10.6041811,9.66666667 12.3260394,7.93550103 12.3260394,5.8 C12.3260394,3.66449897 10.6041811,1.93333333 8.48016129,1.93333333 L8.48016129,1.93333333 Z M21.9407348,15.4666667 C26.1712007,15.4666667 28.0749104,19.0124 28.5460305,23.2 L26.6423208,23.2 C26.2961918,20.0477 25.0462814,17.4 21.9407348,17.4 C18.8351882,17.4 17.5852778,20.0496333 17.2391487,23.2 L15.3354391,23.2 C15.8065591,19.0133667 17.7102688,15.4666667 21.9407348,15.4666667 L21.9407348,15.4666667 Z"></path>
                </g>
            </g>
        </g>
    </g>
</svg>