<?xml version="1.0" encoding="UTF-8" standalone="no"?>
<svg width="24px" height="25px" viewBox="0 0 24 25" version="1.1" xmlns="http://www.w3.org/2000/svg" xmlns:xlink="http://www.w3.org/1999/xlink">
    <!-- Generator: Sketch 42 (36781) - http://www.bohemiancoding.com/sketch -->
    <title>IconePontosTuristicos@1x</title>
    <desc>Created with Sketch.</desc>
    <defs></defs>
    <g id="Tueddin" stroke="none" stroke-width="1" fill="none" fill-rule="evenodd">
        <g id="iPhone-7-pesquisar" transform="translate(-225.000000, -76.000000)" fill="#9B9B9B">
            <g id="IconePontosTuristicos" transform="translate(225.333333, 76.000000)">
                <g id="Group">
                    <path d="M12.936,23.4028846 C12.69024,23.4028846 12.44448,23.3086538 12.25728,23.1211538 L1.39584,12.2423077 C1.21632,12.0625 1.11456,11.8182692 1.11456,11.5625 C1.11456,11.3076923 1.21632,11.0634615 1.39584,10.8826923 C1.60128,10.6769231 1.82016,10.4884615 2.04576,10.3211538 C2.89344,9.69230769 3.90144,9.30961538 4.96032,9.21538462 C5.6976,9.15192308 6.43584,9.22692308 7.14816,9.44230769 C8.0448,9.71442308 8.87328,10.2125 9.54144,10.8826923 L13.61472,14.9615385 C14.64,15.9894231 15.23808,17.3538462 15.2976,18.8038462 C15.32544,19.5125 15.22656,20.2105769 15.00288,20.8798077 C14.81088,21.4557692 14.52864,21.9951923 14.1648,22.4836538 C14.00064,22.7048077 13.81728,22.9182692 13.61472,23.1211538 C13.42656,23.3086538 13.1808,23.4028846 12.936,23.4028846 L12.936,23.4028846 Z M3.51744,11.6480769 L12.85056,20.9961538 C12.98592,20.7653846 13.09728,20.5221154 13.18176,20.2682692 C13.33248,19.8211538 13.39776,19.3557692 13.37952,18.8817308 C13.34016,17.9163462 12.93984,17.0067308 12.25728,16.3221154 L8.184,12.2423077 C7.73184,11.7894231 7.1952,11.4663462 6.5904,11.2826923 C6.1152,11.1384615 5.62272,11.0875 5.13024,11.1307692 C4.55616,11.1817308 4.00704,11.3596154 3.51744,11.6480769 L3.51744,11.6480769 Z" id="Fill-162"></path>
                    <path d="M2.14752,24.3971154 C1.63008,24.3971154 1.11264,24.1971154 0.71712,23.8009615 C-0.02112,23.0615385 -0.07776,21.8961538 0.58464,21.0884615 L5.39616,15.0432692 C5.72736,14.6278846 6.3312,14.5596154 6.74496,14.8894231 C7.16064,15.2211538 7.22784,15.8259615 6.8976,16.2413462 L2.07744,22.2980769 C2.03616,22.3480769 2.03904,22.4057692 2.07456,22.4413462 C2.11296,22.4769231 2.16768,22.4798077 2.20704,22.4480769 L8.26464,17.6105769 C8.67936,17.2798077 9.2832,17.3480769 9.6144,17.7634615 C9.94368,18.1778846 9.87648,18.7826923 9.46176,19.1144231 L3.41472,23.9423077 C3.04512,24.2461538 2.59584,24.3971154 2.14752,24.3971154" id="Fill-163"></path>
                    <path d="M15.94368,14.2807692 C15.73056,14.2807692 15.51552,14.2086538 15.33696,14.0625 C14.92704,13.7259615 14.8656,13.1211538 15.20256,12.7096154 L18.30144,8.91442308 C18.6384,8.50288462 19.24224,8.44230769 19.65312,8.77788462 C20.06304,9.11346154 20.12448,9.72019231 19.78848,10.1307692 L16.68768,13.9278846 C16.4976,14.1605769 16.22208,14.2807692 15.94368,14.2807692" id="Fill-164"></path>
                    <path d="M8.18496,11.9663462 C7.90656,11.9663462 7.63104,11.8461538 7.44096,11.6134615 C7.10496,11.2028846 7.1664,10.5971154 7.57728,10.2605769 L13.96416,5.02692308 C13.63776,3.73269231 14.00352,2.33365385 14.97312,1.36442308 C15.33408,1.00192308 15.816,0.800961538 16.32864,0.800961538 L16.33056,0.800961538 C16.8432,0.800961538 17.32512,1.00096154 17.688,1.36442308 L23.11776,6.80288462 C23.48064,7.16634615 23.68032,7.65 23.68032,8.16442308 C23.68032,8.67788462 23.47968,9.16057692 23.1168,9.52307692 C22.39296,10.2490385 21.42912,10.6490385 20.40288,10.6490385 C19.3776,10.6490385 18.41376,10.2490385 17.688,9.52211538 L16.71168,8.54615385 C16.33728,8.17115385 16.33728,7.56153846 16.71168,7.18653846 C17.08704,6.81057692 17.69472,6.81057692 18.06912,7.18653846 L19.04544,8.1625 C19.7712,8.88942308 21.03456,8.88942308 21.76032,8.1625 L16.33056,2.72403846 C15.75168,3.30288462 15.60288,4.18653846 15.95904,4.92211538 C16.14816,5.31346154 16.0512,5.78461538 15.72288,6.06826923 L15.57984,6.1875 L8.79168,11.75 C8.61408,11.8951923 8.39904,11.9663462 8.18496,11.9663462" id="Fill-165"></path>
                </g>
            </g>
        </g>
    </g>
</svg>