<?xml version="1.0" encoding="UTF-8" standalone="no"?>
<svg width="26px" height="26px" viewBox="0 0 26 26" version="1.1" xmlns="http://www.w3.org/2000/svg" xmlns:xlink="http://www.w3.org/1999/xlink">
    <!-- Generator: Sketch 42 (36781) - http://www.bohemiancoding.com/sketch -->
    <title>iconePontoDeEncontro@1x</title>
    <desc>Created with Sketch.</desc>
    <defs></defs>
    <g id="Tueddin" stroke="none" stroke-width="1" fill="none" fill-rule="evenodd">
        <g id="iPhone-7-pesquisar" transform="translate(-41.000000, -78.000000)" fill="#9B9B9B">
            <g id="iconePontoDeEncontro" transform="translate(41.000000, 78.000000)">
                <g id="Fill-192-+-Fill-193-+-Fill-194">
                    <path d="M17.2943333,25.78225 C16.89675,25.78225 16.4980833,25.67175 16.1438333,25.45075 L8.70675,20.8021667 C8.22141667,21.1499167 7.54433333,21.0361667 7.19658333,20.5519167 C6.84775,20.0655 6.96041667,19.3884167 7.44683333,19.0395833 C8.16291667,18.52825 9.10541667,18.4979167 9.85616667,18.9659167 L17.29325,23.6145 L23.8333333,18.9420833 L23.8333333,3.18825 L18.5520833,6.96041667 C17.8370833,7.47283333 16.8913333,7.501 16.1438333,7.03408333 L8.70675,2.3855 L2.16666667,7.05791667 L2.16666667,22.81175 L4.01266667,21.49225 C4.49908333,21.1423333 5.17508333,21.2539167 5.525,21.7403333 C5.87383333,22.22675 5.76225,22.9038333 5.27583333,23.2526667 L3.4255,24.5754167 C2.7625,25.0466667 1.89908333,25.1095 1.17541667,24.739 C0.450666667,24.36525 0,23.6275 0,22.81175 L0,7.05791667 C0,6.35916667 0.339083333,5.7005 0.907833333,5.29533333 L7.44791667,0.622916667 C8.16291667,0.1105 9.10866667,0.0834166667 9.85616667,0.54925 L17.29325,5.19783333 L22.5745,1.42566667 C23.2364167,0.95225 24.09875,0.889416667 24.8245833,1.261 C25.5493333,1.63475 26,2.3725 26,3.18825 L26,18.9420833 C26,19.6408333 25.6598333,20.2995 25.0921667,20.7046667 L18.5520833,25.3770833 C18.1750833,25.6468333 17.73525,25.78225 17.2943333,25.78225" id="Fill-192"></path>
                    <path d="M17.3333333,21.6666667 C16.73425,21.6666667 16.25,21.1824167 16.25,20.5833333 L16.25,6.5 C16.25,5.90091667 16.73425,5.41666667 17.3333333,5.41666667 C17.9324167,5.41666667 18.4166667,5.90091667 18.4166667,6.5 L18.4166667,20.5833333 C18.4166667,21.1824167 17.9324167,21.6666667 17.3333333,21.6666667" id="Fill-193"></path>
                    <path d="M8.66666667,20.5833333 C8.06758333,20.5833333 7.58333333,20.0990833 7.58333333,19.5 L7.58333333,5.41666667 C7.58333333,4.81758333 8.06758333,4.33333333 8.66666667,4.33333333 C9.26575,4.33333333 9.75,4.81758333 9.75,5.41666667 L9.75,19.5 C9.75,20.0990833 9.26575,20.5833333 8.66666667,20.5833333" id="Fill-194"></path>
                </g>
            </g>
        </g>
    </g>
</svg>