<?xml version="1.0" encoding="utf-8"?>
<!-- Generator: Adobe Illustrator 21.0.1, SVG Export Plug-In . SVG Version: 6.00 Build 0)  -->
<svg version="1.1" id="Camada_1" xmlns="http://www.w3.org/2000/svg" xmlns:xlink="http://www.w3.org/1999/xlink" x="0px" y="0px"
	 viewBox="0 0 22 28" style="enable-background:new 0 0 22 28;" xml:space="preserve">
<style type="text/css">
	.st0{fill:#7ED321;}
</style>
<title>IconeLocais Copy@1x</title>
<desc>Created with Sketch.</desc>
<g id="Tueddin">
	<g id="iPhone-7-pesquisar" transform="translate(-314.000000, -76.000000)">
		<g id="IconeLocais-Copy" transform="translate(314.000000, 76.000000)">
			<g id="Fill-45-_x2B_-Fill-46" transform="translate(0.000000, 0.323529)">
				<path id="Fill-45" class="st0" d="M11,27c-0.3,0-0.6-0.1-0.8-0.4c-0.4-0.5-0.4-1.2,0-1.6c4.4-4.3,9.6-10.5,9.6-13.8
					c0-5-3.9-9-8.8-9s-8.8,4-8.8,9c0,2.2,2,5.6,5.6,9.7c0.2,0.2,0.4,0.5,0.6,0.7c0.4,0.5,0.4,1.2-0.1,1.6c-0.4,0.4-1.1,0.4-1.6-0.1
					c-0.2-0.2-0.4-0.5-0.7-0.7C2.1,17.9,0,14.1,0,11.2C0,5,4.9,0,11,0s11,5,11,11.2c0,5-7.2,12.5-10.2,15.4C11.5,26.9,11.3,27,11,27
					"/>
				<path id="Fill-46" class="st0" d="M11,15.3c-2.2,0-3.9-1.8-3.9-4s1.8-4,3.9-4s3.9,1.8,3.9,4S13.2,15.3,11,15.3L11,15.3z M11,9.5
					c-1,0-1.7,0.8-1.7,1.8S10,13,11,13s1.7-0.8,1.7-1.8S12,9.5,11,9.5L11,9.5z"/>
			</g>
		</g>
	</g>
</g>
</svg>
