<?xml version="1.0" encoding="UTF-8" standalone="no"?>
<svg width="22px" height="28px" viewBox="0 0 22 28" version="1.1" xmlns="http://www.w3.org/2000/svg" xmlns:xlink="http://www.w3.org/1999/xlink">
    <!-- Generator: Sketch 42 (36781) - http://www.bohemiancoding.com/sketch -->
    <title>IconeLocais@1x</title>
    <desc>Created with Sketch.</desc>
    <defs></defs>
    <g id="Tueddin" stroke="none" stroke-width="1" fill="none" fill-rule="evenodd">
        <g id="iPhone-7-pesquisar" transform="translate(-314.000000, -76.000000)" fill="#9B9B9B">
            <g id="IconeLocais" transform="translate(314.000000, 75.000000)">
                <g id="Fill-45-+-Fill-46" transform="translate(0.000000, 1.323529)">
                    <path d="M11,27 C10.7085,27 10.4181,26.881875 10.2014,26.649 C9.7834,26.199 9.8021,25.48575 10.2421,25.05825 C14.6509,20.782125 19.8,14.60025 19.8,11.25 C19.8,6.287625 15.8521,2.25 11,2.25 C6.1479,2.25 2.2,6.287625 2.2,11.25 C2.2,13.440375 4.1822,16.893 7.7814,20.968875 C7.9937,21.209625 8.2027,21.4425 8.4084,21.6675 C8.8231,22.122 8.7989,22.834125 8.3556,23.257125 C7.909,23.682375 7.216,23.6565 6.8002,23.202 C6.5868,22.969125 6.369,22.726125 6.149,22.4775 C2.0691,17.856 0,14.07825 0,11.25 C0,5.04675 4.9346,0 11,0 C17.0654,0 22,5.04675 22,11.25 C22,16.219125 14.8368,23.70375 11.7568,26.69175 C11.5445,26.897625 11.2717,27 11,27" id="Fill-45"></path>
                    <path d="M11,15.267375 C8.8341,15.267375 7.0719,13.465125 7.0719,11.25 C7.0719,9.034875 8.8341,7.232625 11,7.232625 C13.1659,7.232625 14.9281,9.034875 14.9281,11.25 C14.9281,13.465125 13.1659,15.267375 11,15.267375 L11,15.267375 Z M11,9.482625 C10.0474,9.482625 9.2719,10.27575 9.2719,11.25 C9.2719,12.22425 10.0474,13.017375 11,13.017375 C11.9526,13.017375 12.7281,12.22425 12.7281,11.25 C12.7281,10.27575 11.9526,9.482625 11,9.482625 L11,9.482625 Z" id="Fill-46"></path>
                </g>
            </g>
        </g>
    </g>
</svg>