<?xml version="1.0" encoding="UTF-8" standalone="no"?>
<svg width="72px" height="43px" viewBox="0 0 72 43" version="1.1" xmlns="http://www.w3.org/2000/svg" xmlns:xlink="http://www.w3.org/1999/xlink">
    <!-- Generator: Sketch 41 (35326) - http://www.bohemiancoding.com/sketch -->
    <title>IconePontosTuristicos</title>
    <desc>Created with Sketch.</desc>
    <defs></defs>
    <g id="Tueddin" stroke="none" stroke-width="1" fill="none" fill-rule="evenodd">
        <g id="iPhone-7-home" transform="translate(-64.000000, -374.000000)" fill="#FFFFFF">
            <g id="IconePontosTuristicos" transform="translate(64.000000, 373.000000)">
                <text id="PONTOS-TURÍSTICO" font-family=".SFNSDisplay-Bold, .SF NS Display" font-size="7.6500001" font-weight="bold">
                    <tspan x="0" y="43">PONTOS TURÍSTICO</tspan>
                </text>
                <g id="Group" transform="translate(23.000000, 0.000000)">
                    <path d="M16.17,29.0195769 C15.8628,29.0195769 15.5556,28.9027308 15.3216,28.6702308 L1.7448,15.1804615 C1.5204,14.9575 1.3932,14.6546538 1.3932,14.3375 C1.3932,14.0215385 1.5204,13.7186923 1.7448,13.4945385 C2.0016,13.2393846 2.2752,13.0056923 2.5572,12.7982308 C3.6168,12.0184615 4.8768,11.5439231 6.2004,11.4270769 C7.122,11.3483846 8.0448,11.4413846 8.9352,11.7084615 C10.056,12.0458846 11.0916,12.6635 11.9268,13.4945385 L17.0184,18.5523077 C18.3,19.8268846 19.0476,21.5187692 19.122,23.3167692 C19.1568,24.1955 19.0332,25.0611154 18.7536,25.8909615 C18.5136,26.6051538 18.1608,27.2740385 17.706,27.8797308 C17.5008,28.1539615 17.2716,28.4186538 17.0184,28.6702308 C16.7832,28.9027308 16.476,29.0195769 16.17,29.0195769 L16.17,29.0195769 Z M4.3968,14.4436154 L16.0632,26.0352308 C16.2324,25.7490769 16.3716,25.4474231 16.4772,25.1326538 C16.6656,24.5782308 16.7472,24.0011538 16.7244,23.4133462 C16.6752,22.2162692 16.1748,21.0883462 15.3216,20.2394231 L10.23,15.1804615 C9.6648,14.6188846 8.994,14.2182692 8.238,13.9905385 C7.644,13.8116923 7.0284,13.7485 6.4128,13.8021538 C5.6952,13.8653462 5.0088,14.0859231 4.3968,14.4436154 L4.3968,14.4436154 Z" id="Fill-162"></path>
                    <path d="M2.6844,30.2524231 C2.0376,30.2524231 1.3908,30.0044231 0.8964,29.5131923 C-0.0264,28.5963077 -0.0972,27.1512308 0.7308,26.1496923 L6.7452,18.6536538 C7.1592,18.1385769 7.914,18.0539231 8.4312,18.4628846 C8.9508,18.8742308 9.0348,19.6241923 8.622,20.1392692 L2.5968,27.6496154 C2.5452,27.7116154 2.5488,27.7831538 2.5932,27.8272692 C2.6412,27.8713846 2.7096,27.8749615 2.7588,27.8356154 L10.3308,21.8371154 C10.8492,21.4269615 11.604,21.5116154 12.018,22.0266923 C12.4296,22.5405769 12.3456,23.2905385 11.8272,23.7018846 L4.2684,29.6884615 C3.8064,30.0652308 3.2448,30.2524231 2.6844,30.2524231" id="Fill-163"></path>
                    <path d="M19.9296,17.7081538 C19.6632,17.7081538 19.3944,17.6187308 19.1712,17.4375 C18.6588,17.0201923 18.582,16.2702308 19.0032,15.7599231 L22.8768,11.0538846 C23.298,10.5435769 24.0528,10.4684615 24.5664,10.8845769 C25.0788,11.3006923 25.1556,12.0530385 24.7356,12.5621538 L20.8596,17.2705769 C20.622,17.5591154 20.2776,17.7081538 19.9296,17.7081538" id="Fill-164"></path>
                    <path d="M10.2312,14.8382692 C9.8832,14.8382692 9.5388,14.6892308 9.3012,14.4006923 C8.8812,13.8915769 8.958,13.1404231 9.4716,12.7231154 L17.4552,6.23338462 C17.0472,4.62853846 17.5044,2.89373077 18.7164,1.69188462 C19.1676,1.24238462 19.77,0.993192308 20.4108,0.993192308 L20.4132,0.993192308 C21.054,0.993192308 21.6564,1.24119231 22.11,1.69188462 L28.8972,8.43557692 C29.3508,8.88626923 29.6004,9.486 29.6004,10.1238846 C29.6004,10.7605769 29.3496,11.3591154 28.896,11.8086154 C27.9912,12.7088077 26.7864,13.2048077 25.5036,13.2048077 C24.222,13.2048077 23.0172,12.7088077 22.11,11.8074231 L20.8896,10.5972308 C20.4216,10.1322308 20.4216,9.37630769 20.8896,8.91130769 C21.3588,8.44511538 22.1184,8.44511538 22.5864,8.91130769 L23.8068,10.1215 C24.714,11.0228846 26.2932,11.0228846 27.2004,10.1215 L20.4132,3.37780769 C19.6896,4.09557692 19.5036,5.19130769 19.9488,6.10342308 C20.1852,6.58869231 20.064,7.17292308 19.6536,7.52465385 L19.4748,7.6725 L10.9896,14.57 C10.7676,14.7500385 10.4988,14.8382692 10.2312,14.8382692" id="Fill-165"></path>
                </g>
            </g>
        </g>
    </g>
</svg>