<?xml version="1.0" encoding="UTF-8" standalone="no"?>
<svg width="41px" height="40px" viewBox="0 0 41 40" version="1.1" xmlns="http://www.w3.org/2000/svg" xmlns:xlink="http://www.w3.org/1999/xlink">
    <!-- Generator: Sketch 41 (35326) - http://www.bohemiancoding.com/sketch -->
    <title>IconeFavoritos</title>
    <desc>Created with Sketch.</desc>
    <defs></defs>
    <g id="Tueddin" stroke="none" stroke-width="1" fill="none" fill-rule="evenodd">
        <g id="iPhone-7-home" transform="translate(-83.000000, -500.000000)" fill="#FFFFFF">
            <g id="IconeFavoritos" transform="translate(83.000000, 500.000000)">
                <g id="Fill-156" transform="translate(3.000000, 0.000000)">
                    <path d="M8.04168,30.8346667 C7.45552,30.8346667 6.87344,30.6533333 6.36752,30.292 C5.42912,29.6253333 5.0048,28.5226667 5.2564,27.4146667 L6.9836,19.8213333 C6.99448,19.7746667 6.9768,19.724 6.93872,19.6906667 L0.98872,14.5426667 C0.1224,13.792 -0.19584,12.6546667 0.16184,11.576 C0.51952,10.496 1.45792,9.75866667 2.6112,9.65066667 L10.50872,8.91466667 C10.56176,8.91066667 10.60392,8.88 10.62432,8.83333333 L13.77816,1.69733333 C14.2392,0.654666667 15.24424,0.008 16.4016,0.008 L16.40432,0.008 C17.56168,0.008 18.56536,0.656 19.02504,1.69733333 L22.1816,8.83333333 C22.47808,9.50933333 22.16256,10.2946667 21.47304,10.5866667 C20.78352,10.8813333 19.98248,10.568 19.68464,9.89333333 L16.52808,2.756 C16.51584,2.72533333 16.49272,2.67466667 16.4016,2.67466667 C16.31048,2.67466667 16.28872,2.72533333 16.27512,2.75733333 L13.12128,9.89333333 C12.70512,10.832 11.80344,11.4733333 10.76712,11.5706667 L2.86824,12.3066667 C2.83424,12.3093333 2.77712,12.3146667 2.74856,12.3986667 C2.72136,12.484 2.76352,12.5213333 2.78936,12.5426667 L8.73936,17.692 C9.51864,18.3666667 9.86272,19.4053333 9.63832,20.4013333 L7.90976,27.9946667 C7.90296,28.0266667 7.89072,28.0813333 7.96416,28.1346667 C8.03896,28.188 8.08656,28.16 8.11648,28.1413333 L14.94776,24.1853333 C15.84808,23.6653333 16.96192,23.668 17.8568,24.1853333 L24.68808,28.1413333 C24.71664,28.16 24.76424,28.188 24.8404,28.1346667 C24.91384,28.0813333 24.9016,28.0266667 24.8948,27.9946667 L23.1676,20.4026667 C22.94048,19.4026667 23.28592,18.364 24.06656,17.6906667 L30.01384,12.544 C30.04104,12.5213333 30.0832,12.484 30.056,12.4 C30.02608,12.3146667 29.97032,12.3093333 29.93632,12.3066667 L26.15824,11.9546667 C25.4116,11.8853333 24.86216,11.2333333 24.93424,10.5013333 C25.00496,9.76933333 25.6564,9.232 26.41664,9.3 L30.19336,9.65066667 C31.34664,9.75866667 32.28368,10.496 32.64272,11.576 C33.0004,12.656 32.68216,13.792 31.81448,14.5426667 L25.86584,19.6906667 C25.82776,19.724 25.81144,19.7746667 25.82232,19.8226667 L27.54816,27.4146667 C27.79976,28.5226667 27.37544,29.6253333 26.43704,30.292 C25.5,30.9613333 24.30048,31.016 23.30496,30.4373333 L16.47232,26.4813333 C16.43016,26.456 16.3744,26.456 16.33224,26.4813333 L9.4996,30.4373333 C9.04128,30.7026667 8.5408,30.8346667 8.04168,30.8346667"></path>
                </g>
                <text id="FAVORITOS" font-family=".SFNSDisplay-Bold, .SF NS Display" font-size="7.6500001" font-weight="bold">
                    <tspan x="0" y="39">FAVORITOS</tspan>
                </text>
            </g>
        </g>
    </g>
</svg>