<?xml version="1.0" encoding="UTF-8" standalone="no"?>
<svg width="22px" height="24px" viewBox="0 0 22 24" version="1.1" xmlns="http://www.w3.org/2000/svg" xmlns:xlink="http://www.w3.org/1999/xlink">
    <!-- Generator: Sketch 41 (35326) - http://www.bohemiancoding.com/sketch -->
    <title>configuracao</title>
    <desc>Created with Sketch.</desc>
    <defs></defs>
    <g id="Tueddin" stroke="none" stroke-width="1" fill="none" fill-rule="evenodd">
        <g id="iPhone-7-home" transform="translate(-13.000000, -31.000000)" fill="#FFFFFF">
            <g id="configuracao" transform="translate(13.000000, 31.000000)">
                <path d="M3,24 C2.447,24 2,23.553 2,23 L2,8 C2,7.447 2.447,7 3,7 C3.553,7 4,7.447 4,8 L4,23 C4,23.553 3.553,24 3,24" id="Fill-200"></path>
                <path d="M3,5 C2.447,5 2,4.553 2,4 L2,1 C2,0.447 2.447,0 3,0 C3.553,0 4,0.447 4,1 L4,4 C4,4.553 3.553,5 3,5" id="Fill-201"></path>
                <path d="M11,24 C10.447,24 10,23.553 10,23 L10,20 C10,19.447 10.447,19 11,19 C11.553,19 12,19.447 12,20 L12,23 C12,23.553 11.553,24 11,24" id="Fill-202"></path>
                <path d="M11,17 C10.447,17 10,16.553 10,16 L10,1 C10,0.447 10.447,0 11,0 C11.553,0 12,0.447 12,1 L12,16 C12,16.553 11.553,17 11,17" id="Fill-203"></path>
                <path d="M19,24 C18.447,24 18,23.553 18,23 L18,8 C18,7.447 18.447,7 19,7 C19.553,7 20,7.447 20,8 L20,23 C20,23.553 19.553,24 19,24" id="Fill-204"></path>
                <path d="M19,5 C18.447,5 18,4.553 18,4 L18,1 C18,0.447 18.447,0 19,0 C19.553,0 20,0.447 20,1 L20,4 C20,4.553 19.553,5 19,5" id="Fill-205"></path>
                <path d="M3,9 C1.346,9 0,7.654 0,6 C0,4.346 1.346,3 3,3 C4.654,3 6,4.346 6,6 C6,7.654 4.654,9 3,9 L3,9 Z M3,5 C2.448,5 2,5.448 2,6 C2,6.552 2.448,7 3,7 C3.552,7 4,6.552 4,6 C4,5.448 3.552,5 3,5 L3,5 Z" id="Fill-206"></path>
                <path d="M19,9 C17.346,9 16,7.654 16,6 C16,4.346 17.346,3 19,3 C20.654,3 22,4.346 22,6 C22,7.654 20.654,9 19,9 L19,9 Z M19,5 C18.448,5 18,5.448 18,6 C18,6.552 18.448,7 19,7 C19.552,7 20,6.552 20,6 C20,5.448 19.552,5 19,5 L19,5 Z" id="Fill-207"></path>
                <path d="M11,21 C9.346,21 8,19.654 8,18 C8,16.346 9.346,15 11,15 C12.654,15 14,16.346 14,18 C14,19.654 12.654,21 11,21 L11,21 Z M11,17 C10.448,17 10,17.448 10,18 C10,18.552 10.448,19 11,19 C11.552,19 12,18.552 12,18 C12,17.448 11.552,17 11,17 L11,17 Z" id="Fill-208"></path>
            </g>
        </g>
    </g>
</svg>