<?xml version="1.0" encoding="UTF-8" standalone="no"?>
<svg width="28px" height="46px" viewBox="0 0 28 46" version="1.1" xmlns="http://www.w3.org/2000/svg" xmlns:xlink="http://www.w3.org/1999/xlink">
    <!-- Generator: Sketch 41 (35326) - http://www.bohemiancoding.com/sketch -->
    <title>IconeLocais</title>
    <desc>Created with Sketch.</desc>
    <defs></defs>
    <g id="Tueddin" stroke="none" stroke-width="1" fill="none" fill-rule="evenodd">
        <g id="iPhone-7-home" transform="translate(-259.000000, -120.000000)" fill="#FFFFFF">
            <g id="IconeLocais" transform="translate(259.000000, 120.000000)">
                <g id="Fill-45-+-Fill-46">
                    <path d="M14,34 C13.629,34 13.2594,33.85125 12.9836,33.558 C12.4516,32.9913333 12.4754,32.0931667 13.0354,31.5548333 C18.6466,26.1700833 25.2,18.3855 25.2,14.1666667 C25.2,7.91775 20.1754,2.83333333 14,2.83333333 C7.8246,2.83333333 2.8,7.91775 2.8,14.1666667 C2.8,16.9249167 5.3228,21.2726667 9.9036,26.40525 C10.1738,26.7084167 10.4398,27.0016667 10.7016,27.285 C11.2294,27.8573333 11.1986,28.7540833 10.6344,29.28675 C10.066,29.82225 9.184,29.7896667 8.6548,29.2173333 C8.3832,28.9240833 8.106,28.6180833 7.826,28.305 C2.6334,22.4853333 0,17.7281667 0,14.1666667 C0,6.35516667 6.2804,0 14,0 C21.7196,0 28,6.35516667 28,14.1666667 C28,20.4240833 18.8832,29.8491667 14.9632,33.6118333 C14.693,33.8710833 14.3458,34 14,34" id="Fill-45"></path>
                    <path d="M14,19.2255833 C11.2434,19.2255833 9.0006,16.9560833 9.0006,14.1666667 C9.0006,11.37725 11.2434,9.10775 14,9.10775 C16.7566,9.10775 18.9994,11.37725 18.9994,14.1666667 C18.9994,16.9560833 16.7566,19.2255833 14,19.2255833 L14,19.2255833 Z M14,11.9410833 C12.7876,11.9410833 11.8006,12.9398333 11.8006,14.1666667 C11.8006,15.3935 12.7876,16.39225 14,16.39225 C15.2124,16.39225 16.1994,15.3935 16.1994,14.1666667 C16.1994,12.9398333 15.2124,11.9410833 14,11.9410833 L14,11.9410833 Z" id="Fill-46"></path>
                </g>
                <text id="LOCAIS" font-family=".SFNSDisplay-Bold, .SF NS Display" font-size="7.6500001" font-weight="bold">
                    <tspan x="1" y="45">LOCAIS</tspan>
                </text>
            </g>
        </g>
    </g>
</svg>