<?xml version="1.0" encoding="UTF-8" standalone="no"?>
<svg width="16px" height="19px" viewBox="0 0 16 19" version="1.1" xmlns="http://www.w3.org/2000/svg" xmlns:xlink="http://www.w3.org/1999/xlink">
    <!-- Generator: Sketch 41 (35326) - http://www.bohemiancoding.com/sketch -->
    <title>localizacao@1x</title>
    <desc>Created with Sketch.</desc>
    <defs></defs>
    <g id="Tueddin" stroke="none" stroke-width="1" fill="none" fill-rule="evenodd">
        <g id="iPhone-7-configuracoes" transform="translate(-45.000000, -342.000000)" fill="#4990E2">
            <g id="localizacao" transform="translate(45.000000, 342.000000)">
                <path d="M8,19 C7.788,19 7.5768,18.916875 7.4192,18.753 C7.1152,18.4363333 7.1288,17.9344167 7.4488,17.6335833 C10.6552,14.6244583 14.4,10.27425 14.4,7.91666667 C14.4,4.424625 11.5288,1.58333333 8,1.58333333 C4.4712,1.58333333 1.6,4.424625 1.6,7.91666667 C1.6,9.45804167 3.0416,11.8876667 5.6592,14.755875 C5.8136,14.9252917 5.9656,15.0891667 6.1152,15.2475 C6.4168,15.5673333 6.3992,16.0684583 6.0768,16.366125 C5.752,16.665375 5.248,16.6471667 4.9456,16.3273333 C4.7904,16.1634583 4.632,15.9924583 4.472,15.8175 C1.5048,12.5653333 0,9.90691667 0,7.91666667 C0,3.55141667 3.5888,0 8,0 C12.4112,0 16,3.55141667 16,7.91666667 C16,11.4134583 10.7904,16.6804167 8.5504,18.7830833 C8.396,18.9279583 8.1976,19 8,19" id="Fill-45"></path>
                <path d="M7.6568,11.19575 C6.0816,11.19575 4.8,9.9275 4.8,8.36870833 C4.8,6.80991667 6.0816,5.54166667 7.6568,5.54166667 C9.232,5.54166667 10.5136,6.80991667 10.5136,8.36870833 C10.5136,9.9275 9.232,11.19575 7.6568,11.19575 L7.6568,11.19575 Z M7.6568,7.125 C6.964,7.125 6.4,7.683125 6.4,8.36870833 C6.4,9.05429167 6.964,9.61241667 7.6568,9.61241667 C8.3496,9.61241667 8.9136,9.05429167 8.9136,8.36870833 C8.9136,7.683125 8.3496,7.125 7.6568,7.125 L7.6568,7.125 Z" id="Fill-46"></path>
            </g>
        </g>
    </g>
</svg>