<?xml version="1.0" encoding="UTF-8" standalone="no"?>
<svg width="19px" height="19px" viewBox="0 0 19 19" version="1.1" xmlns="http://www.w3.org/2000/svg" xmlns:xlink="http://www.w3.org/1999/xlink">
    <!-- Generator: Sketch 41 (35326) - http://www.bohemiancoding.com/sketch -->
    <title>Spotify@1x</title>
    <desc>Created with Sketch.</desc>
    <defs></defs>
    <g id="Tueddin" stroke="none" stroke-width="1" fill="none" fill-rule="evenodd">
        <g id="iPhone-7-configuracoes" transform="translate(-34.000000, -1395.000000)">
            <g id="Spotify" transform="translate(34.000000, 1395.000000)">
                <path d="M14.4726563,3.23865331e-16 C17.21875,3.23865331e-16 19,1.78125 19,4.52734375 L19,14.4726562 C19,17.21875 17.21875,19 14.4726563,19 L4.52734375,19 C1.78125,19 0,17.21875 0,14.4726562 L0,4.52734375 C0,1.78125 1.78125,3.23865332e-16 4.52734375,3.23865332e-16 L14.4726563,3.23865331e-16 Z" id="App-Icon-Shape" fill="#191414"></path>
                <path d="M9.57079953,17.0850335 C13.7244411,17.0850335 17.0916329,13.7178417 17.0916329,9.56420018 C17.0916329,5.41055863 13.7244411,2.04336685 9.57079953,2.04336685 C5.41715797,2.04336685 2.04996619,5.41055863 2.04996619,9.56420018 C2.04996619,13.7178417 5.41715797,17.0850335 9.57079953,17.0850335 Z M15.0855073,8.01132458 C15.0828352,8.64163905 14.514981,8.98503702 14.0497019,8.71779384 C13.1315357,8.19048874 12.1441956,7.86148669 11.1091585,7.67283659 C9.16510713,7.31858322 7.22793642,7.30685939 5.30669809,7.83192661 C4.89509482,7.94442193 4.52210337,7.74778893 4.40880642,7.36016774 C4.29704593,6.97779055 4.51057995,6.6050997 4.91984513,6.4821164 C5.61993476,6.2717555 6.33786064,6.15301415 7.06420362,6.08494246 C7.86326108,6.01002352 8.66385498,5.99399093 9.46491651,6.05067281 C11.2226224,6.17505896 12.9228115,6.52203086 14.4953076,7.3589653 C14.5836539,7.40599422 14.6715659,7.4545596 14.7558038,7.50846917 C14.974014,7.64818649 15.0833362,7.84969606 15.0855073,8.01132458 Z M8.31172421,8.6030676 C9.96241264,8.61061628 11.5473675,8.92144806 13.0408363,9.64331528 C13.2757137,9.75681264 13.5050465,9.88400449 13.7277993,10.0198139 C14.0275418,10.2025186 14.1110449,10.54762 13.9377928,10.8280567 C13.7622359,11.1122677 13.4206082,11.1955369 13.1226359,11.0176754 C11.9799133,10.335589 10.7335801,9.98287211 9.41930876,9.83981468 C8.1393071,9.70046477 6.87861135,9.78520368 5.63889157,10.1447344 C5.31112537,10.2397943 4.99428137,10.0645381 4.90189359,9.74866274 C4.81064145,9.43662852 4.98783494,9.11858207 5.31703739,9.01897963 C5.76962396,8.88203462 6.23109525,8.78122973 6.69901298,8.71442728 C7.23333234,8.63817229 7.7703906,8.59114337 8.31172421,8.6030676 Z M12.8388902,12.2996981 C13.1494974,12.4932641 13.202993,12.8408886 12.9594457,13.0695128 C12.7979862,13.2210985 12.5810529,13.241732 12.376139,13.1134828 C11.6517846,12.6602099 10.8694705,12.3542828 10.0336023,12.1825494 C9.08851984,11.9883647 8.13651685,11.9667365 7.17944147,12.0672868 C6.72053259,12.1154994 6.2656251,12.1870994 5.81357581,12.280597 C5.53181237,12.3388501 5.29463314,12.1777673 5.23843159,11.9066962 C5.18688113,11.6581554 5.37072332,11.4214535 5.63251077,11.3601994 C6.98011359,11.0448817 7.51020152,11.0204673 8.46466256,11.031415 C10.0283893,11.0671617 11.4995986,11.4652155 12.8388902,12.2996981 Z" id="Icon" fill="#1ED760"></path>
            </g>
        </g>
    </g>
</svg>